<mxfile host="app.diagrams.net" agent="Mozilla/5.0 (Windows NT 10.0; Win64; x64) AppleWebKit/537.36 (KHTML, like Gecko) Chrome/137.0.0.0 Safari/537.36" version="27.1.4">
  <diagram name="Sayfa -1" id="QQKUnx26FpN8GqnOls5V">
    <mxGraphModel dx="951" dy="895" grid="0" gridSize="10" guides="1" tooltips="1" connect="1" arrows="1" fold="1" page="0" pageScale="1" pageWidth="827" pageHeight="1169" math="0" shadow="0">
      <root>
        <mxCell id="0" />
        <mxCell id="1" parent="0" />
        <mxCell id="YTHDeGnD4PDt1OT0c1N5-1" value="HTTP İsteği" style="rounded=1;whiteSpace=wrap;arcSize=50;strokeWidth=2;fillColor=#f5f5f5;strokeColor=#666666;gradientColor=#b3b3b3;" vertex="1" parent="1">
          <mxGeometry x="472" y="20" width="106" height="39" as="geometry" />
        </mxCell>
        <mxCell id="YTHDeGnD4PDt1OT0c1N5-2" value="JWT Token&#xa;Kontrolü" style="rhombus;strokeWidth=2;whiteSpace=wrap;fillColor=#f8cecc;strokeColor=#b85450;" vertex="1" parent="1">
          <mxGeometry x="448" y="109" width="154" height="154" as="geometry" />
        </mxCell>
        <mxCell id="YTHDeGnD4PDt1OT0c1N5-3" value="401 Unauthorized" style="whiteSpace=wrap;strokeWidth=2;fillColor=#f5f5f5;gradientColor=#b3b3b3;strokeColor=#666666;" vertex="1" parent="1">
          <mxGeometry x="318" y="394" width="186" height="54" as="geometry" />
        </mxCell>
        <mxCell id="YTHDeGnD4PDt1OT0c1N5-4" value="Endpoint&#xa;Yönlendirme" style="rhombus;strokeWidth=2;whiteSpace=wrap;fillColor=#dae8fc;strokeColor=#6c8ebf;" vertex="1" parent="1">
          <mxGeometry x="554" y="336" width="168" height="168" as="geometry" />
        </mxCell>
        <mxCell id="YTHDeGnD4PDt1OT0c1N5-5" value="Authentication API&#xa;Login/Logout/Profile" style="whiteSpace=wrap;strokeWidth=2;fillColor=#f5f5f5;strokeColor=#666666;gradientColor=#b3b3b3;" vertex="1" parent="1">
          <mxGeometry x="20" y="961" width="210" height="78" as="geometry" />
        </mxCell>
        <mxCell id="YTHDeGnD4PDt1OT0c1N5-49" style="edgeStyle=orthogonalEdgeStyle;rounded=0;orthogonalLoop=1;jettySize=auto;html=1;exitX=0.75;exitY=1;exitDx=0;exitDy=0;entryX=0;entryY=0.5;entryDx=0;entryDy=0;strokeWidth=3;fillColor=#d5e8d4;strokeColor=#82b366;" edge="1" parent="1" source="YTHDeGnD4PDt1OT0c1N5-6" target="YTHDeGnD4PDt1OT0c1N5-18">
          <mxGeometry relative="1" as="geometry">
            <Array as="points">
              <mxPoint x="374" y="1035" />
              <mxPoint x="374" y="1243" />
            </Array>
          </mxGeometry>
        </mxCell>
        <mxCell id="YTHDeGnD4PDt1OT0c1N5-6" value="Dashboard API&#xa;Sistem Durumu" style="whiteSpace=wrap;strokeWidth=2;fillColor=#f5f5f5;gradientColor=#b3b3b3;strokeColor=#666666;" vertex="1" parent="1">
          <mxGeometry x="266" y="957" width="167" height="78" as="geometry" />
        </mxCell>
        <mxCell id="YTHDeGnD4PDt1OT0c1N5-51" style="edgeStyle=orthogonalEdgeStyle;rounded=0;orthogonalLoop=1;jettySize=auto;html=1;exitX=0.75;exitY=1;exitDx=0;exitDy=0;fillColor=#d5e8d4;strokeColor=#82b366;strokeWidth=3;" edge="1" parent="1" source="YTHDeGnD4PDt1OT0c1N5-7" target="YTHDeGnD4PDt1OT0c1N5-18">
          <mxGeometry relative="1" as="geometry">
            <Array as="points">
              <mxPoint x="681" y="1128" />
              <mxPoint x="803" y="1128" />
            </Array>
          </mxGeometry>
        </mxCell>
        <mxCell id="YTHDeGnD4PDt1OT0c1N5-7" value="Management API&#xa;Kullanıcı/Kurum Yönetimi" style="whiteSpace=wrap;strokeWidth=2;fillColor=#f5f5f5;gradientColor=#b3b3b3;strokeColor=#666666;" vertex="1" parent="1">
          <mxGeometry x="498" y="961" width="244" height="78" as="geometry" />
        </mxCell>
        <mxCell id="YTHDeGnD4PDt1OT0c1N5-8" value="Optimization API&#xa;CP-SAT Çözücü" style="whiteSpace=wrap;strokeWidth=2;fillColor=#f5f5f5;gradientColor=#b3b3b3;strokeColor=#666666;" vertex="1" parent="1">
          <mxGeometry x="780" y="577" width="179" height="78" as="geometry" />
        </mxCell>
        <mxCell id="YTHDeGnD4PDt1OT0c1N5-9" value="Results API&#xa;Sonuç Görüntüleme" style="whiteSpace=wrap;strokeWidth=2;fillColor=#f5f5f5;gradientColor=#b3b3b3;strokeColor=#666666;" vertex="1" parent="1">
          <mxGeometry x="997" y="961" width="200" height="78" as="geometry" />
        </mxCell>
        <mxCell id="YTHDeGnD4PDt1OT0c1N5-64" style="edgeStyle=orthogonalEdgeStyle;rounded=0;orthogonalLoop=1;jettySize=auto;html=1;exitX=0;exitY=0.75;exitDx=0;exitDy=0;entryX=1;entryY=0.5;entryDx=0;entryDy=0;strokeWidth=3;fillColor=#d5e8d4;strokeColor=#82b366;" edge="1" parent="1" source="YTHDeGnD4PDt1OT0c1N5-10" target="YTHDeGnD4PDt1OT0c1N5-18">
          <mxGeometry relative="1" as="geometry">
            <Array as="points">
              <mxPoint x="1218" y="1020" />
              <mxPoint x="1218" y="1214" />
              <mxPoint x="972" y="1214" />
              <mxPoint x="972" y="1243" />
            </Array>
          </mxGeometry>
        </mxCell>
        <mxCell id="YTHDeGnD4PDt1OT0c1N5-10" value="Webhook API&#xa;n8n Entegrasyonu" style="whiteSpace=wrap;strokeWidth=2;fillColor=#f5f5f5;gradientColor=#b3b3b3;strokeColor=#666666;" vertex="1" parent="1">
          <mxGeometry x="1248" y="961" width="186" height="78" as="geometry" />
        </mxCell>
        <mxCell id="YTHDeGnD4PDt1OT0c1N5-11" value="MySQL&#xa;Veritabanı" style="shape=cylinder3;boundedLbl=1;backgroundOutline=1;size=10;strokeWidth=2;whiteSpace=wrap;fillColor=#fff2cc;gradientColor=#ffd966;strokeColor=#d6b656;" vertex="1" parent="1">
          <mxGeometry x="331" y="1270" width="88" height="94" as="geometry" />
        </mxCell>
        <mxCell id="YTHDeGnD4PDt1OT0c1N5-12" value="CP-SAT Model&#xa;Builder" style="whiteSpace=wrap;strokeWidth=2;fillColor=#d5e8d4;strokeColor=#82b366;" vertex="1" parent="1">
          <mxGeometry x="791" y="705" width="156" height="78" as="geometry" />
        </mxCell>
        <mxCell id="YTHDeGnD4PDt1OT0c1N5-13" value="Google OR-Tools&#xa;CP-SAT Solver" style="whiteSpace=wrap;strokeWidth=2;fillColor=#f5f5f5;gradientColor=#b3b3b3;strokeColor=#666666;" vertex="1" parent="1">
          <mxGeometry x="781" y="833" width="176" height="78" as="geometry" />
        </mxCell>
        <mxCell id="YTHDeGnD4PDt1OT0c1N5-61" style="edgeStyle=orthogonalEdgeStyle;rounded=0;orthogonalLoop=1;jettySize=auto;html=1;entryX=0.5;entryY=0;entryDx=0;entryDy=0;fillColor=#d5e8d4;strokeColor=#82b366;strokeWidth=3;" edge="1" parent="1" source="YTHDeGnD4PDt1OT0c1N5-14" target="YTHDeGnD4PDt1OT0c1N5-18">
          <mxGeometry relative="1" as="geometry" />
        </mxCell>
        <mxCell id="YTHDeGnD4PDt1OT0c1N5-14" value="Optimizasyon&#xa;Sonucu" style="whiteSpace=wrap;strokeWidth=2;fillColor=#f5f5f5;gradientColor=#b3b3b3;strokeColor=#666666;" vertex="1" parent="1">
          <mxGeometry x="791" y="961" width="156" height="78" as="geometry" />
        </mxCell>
        <mxCell id="YTHDeGnD4PDt1OT0c1N5-65" style="edgeStyle=orthogonalEdgeStyle;rounded=0;orthogonalLoop=1;jettySize=auto;html=1;exitX=0.25;exitY=1;exitDx=0;exitDy=0;strokeWidth=3;" edge="1" parent="1" source="YTHDeGnD4PDt1OT0c1N5-15" target="YTHDeGnD4PDt1OT0c1N5-16">
          <mxGeometry relative="1" as="geometry" />
        </mxCell>
        <mxCell id="YTHDeGnD4PDt1OT0c1N5-15" value="n8n Workflow&#xa;Tetikleme" style="whiteSpace=wrap;strokeWidth=2;fillColor=#e1d5e7;strokeColor=#9673a6;" vertex="1" parent="1">
          <mxGeometry x="1262" y="1097" width="158" height="78" as="geometry" />
        </mxCell>
        <mxCell id="YTHDeGnD4PDt1OT0c1N5-16" value="CSV Dosya&#xa;İşleme" style="whiteSpace=wrap;strokeWidth=2;" vertex="1" parent="1">
          <mxGeometry x="1175" y="1239" width="133" height="78" as="geometry" />
        </mxCell>
        <mxCell id="YTHDeGnD4PDt1OT0c1N5-17" value="YAML Konfigürasyon&#xa;Okuma" style="whiteSpace=wrap;strokeWidth=2;" vertex="1" parent="1">
          <mxGeometry x="1349" y="1233" width="200" height="78" as="geometry" />
        </mxCell>
        <mxCell id="YTHDeGnD4PDt1OT0c1N5-18" value="JSON Cevabı" style="whiteSpace=wrap;strokeWidth=2;fillColor=#d5e8d4;strokeColor=#82b366;" vertex="1" parent="1">
          <mxGeometry x="786.5" y="1216" width="166" height="54" as="geometry" />
        </mxCell>
        <mxCell id="YTHDeGnD4PDt1OT0c1N5-19" value="" style="curved=1;startArrow=none;endArrow=block;exitX=0.5;exitY=1;entryX=0.5;entryY=0;rounded=0;" edge="1" parent="1" source="YTHDeGnD4PDt1OT0c1N5-1" target="YTHDeGnD4PDt1OT0c1N5-2">
          <mxGeometry relative="1" as="geometry">
            <Array as="points" />
          </mxGeometry>
        </mxCell>
        <mxCell id="YTHDeGnD4PDt1OT0c1N5-20" value="Geçersiz" style="curved=1;startArrow=none;endArrow=block;exitX=0;exitY=1;entryX=0.5;entryY=-0.01;rounded=0;" edge="1" parent="1" source="YTHDeGnD4PDt1OT0c1N5-2" target="YTHDeGnD4PDt1OT0c1N5-3">
          <mxGeometry relative="1" as="geometry">
            <Array as="points">
              <mxPoint x="411" y="300" />
            </Array>
          </mxGeometry>
        </mxCell>
        <mxCell id="YTHDeGnD4PDt1OT0c1N5-21" value="Geçerli" style="curved=1;startArrow=none;endArrow=block;exitX=1;exitY=1;entryX=0.5;entryY=0;rounded=0;" edge="1" parent="1" source="YTHDeGnD4PDt1OT0c1N5-2" target="YTHDeGnD4PDt1OT0c1N5-4">
          <mxGeometry relative="1" as="geometry">
            <Array as="points">
              <mxPoint x="638" y="300" />
            </Array>
          </mxGeometry>
        </mxCell>
        <mxCell id="YTHDeGnD4PDt1OT0c1N5-22" value="/auth/*" style="curved=1;startArrow=none;endArrow=block;exitX=0;exitY=0.62;entryX=0.5;entryY=0;rounded=0;" edge="1" parent="1" source="YTHDeGnD4PDt1OT0c1N5-4" target="YTHDeGnD4PDt1OT0c1N5-5">
          <mxGeometry x="0.2387" y="103" relative="1" as="geometry">
            <Array as="points">
              <mxPoint x="125" y="541" />
            </Array>
            <mxPoint as="offset" />
          </mxGeometry>
        </mxCell>
        <mxCell id="YTHDeGnD4PDt1OT0c1N5-23" value="/api/dashboard" style="curved=1;startArrow=none;endArrow=block;exitX=0;exitY=0.72;entryX=0.5;entryY=0;rounded=0;" edge="1" parent="1" source="YTHDeGnD4PDt1OT0c1N5-4" target="YTHDeGnD4PDt1OT0c1N5-6">
          <mxGeometry relative="1" as="geometry">
            <Array as="points">
              <mxPoint x="364" y="541" />
            </Array>
          </mxGeometry>
        </mxCell>
        <mxCell id="YTHDeGnD4PDt1OT0c1N5-24" value="/api/management" style="curved=1;startArrow=none;endArrow=block;exitX=0.42;exitY=1;entryX=0.5;entryY=0;rounded=0;" edge="1" parent="1" source="YTHDeGnD4PDt1OT0c1N5-4" target="YTHDeGnD4PDt1OT0c1N5-7">
          <mxGeometry relative="1" as="geometry">
            <Array as="points">
              <mxPoint x="619" y="541" />
            </Array>
          </mxGeometry>
        </mxCell>
        <mxCell id="YTHDeGnD4PDt1OT0c1N5-25" value="/optimize" style="curved=1;startArrow=none;endArrow=block;exitX=1;exitY=0.76;entryX=0.5;entryY=0;rounded=0;" edge="1" parent="1" source="YTHDeGnD4PDt1OT0c1N5-4" target="YTHDeGnD4PDt1OT0c1N5-8">
          <mxGeometry relative="1" as="geometry">
            <Array as="points">
              <mxPoint x="869" y="541" />
            </Array>
          </mxGeometry>
        </mxCell>
        <mxCell id="YTHDeGnD4PDt1OT0c1N5-26" value="/api/results" style="curved=1;startArrow=none;endArrow=block;exitX=1;exitY=0.63;entryX=0.5;entryY=0;rounded=0;" edge="1" parent="1" source="YTHDeGnD4PDt1OT0c1N5-4" target="YTHDeGnD4PDt1OT0c1N5-9">
          <mxGeometry relative="1" as="geometry">
            <Array as="points">
              <mxPoint x="1097" y="541" />
            </Array>
          </mxGeometry>
        </mxCell>
        <mxCell id="YTHDeGnD4PDt1OT0c1N5-27" value="/webhook" style="curved=1;startArrow=none;endArrow=block;exitX=1;exitY=0.59;entryX=0.5;entryY=0;rounded=0;" edge="1" parent="1" source="YTHDeGnD4PDt1OT0c1N5-4" target="YTHDeGnD4PDt1OT0c1N5-10">
          <mxGeometry relative="1" as="geometry">
            <Array as="points">
              <mxPoint x="1341" y="541" />
            </Array>
          </mxGeometry>
        </mxCell>
        <mxCell id="YTHDeGnD4PDt1OT0c1N5-32" value="" style="curved=1;startArrow=none;endArrow=block;exitX=0.5;exitY=1;entryX=0.5;entryY=0;rounded=0;" edge="1" parent="1" source="YTHDeGnD4PDt1OT0c1N5-8" target="YTHDeGnD4PDt1OT0c1N5-12">
          <mxGeometry relative="1" as="geometry">
            <Array as="points" />
          </mxGeometry>
        </mxCell>
        <mxCell id="YTHDeGnD4PDt1OT0c1N5-33" value="" style="curved=1;startArrow=none;endArrow=block;exitX=0.5;exitY=1;entryX=0.5;entryY=0;rounded=0;" edge="1" parent="1" source="YTHDeGnD4PDt1OT0c1N5-12" target="YTHDeGnD4PDt1OT0c1N5-13">
          <mxGeometry relative="1" as="geometry">
            <Array as="points" />
          </mxGeometry>
        </mxCell>
        <mxCell id="YTHDeGnD4PDt1OT0c1N5-34" value="" style="curved=1;startArrow=none;endArrow=block;exitX=0.5;exitY=1;entryX=0.5;entryY=0;rounded=0;" edge="1" parent="1" source="YTHDeGnD4PDt1OT0c1N5-13" target="YTHDeGnD4PDt1OT0c1N5-14">
          <mxGeometry relative="1" as="geometry">
            <Array as="points" />
          </mxGeometry>
        </mxCell>
        <mxCell id="YTHDeGnD4PDt1OT0c1N5-35" value="" style="curved=1;startArrow=none;endArrow=block;exitX=0.47;exitY=1;entryX=0.46;entryY=0;rounded=0;" edge="1" parent="1" source="YTHDeGnD4PDt1OT0c1N5-10" target="YTHDeGnD4PDt1OT0c1N5-15">
          <mxGeometry relative="1" as="geometry">
            <Array as="points">
              <mxPoint x="1331" y="1064" />
            </Array>
          </mxGeometry>
        </mxCell>
        <UserObject label="" mermaidData="{&#xa;  &quot;data&quot;: &quot;flowchart TD\n    START([HTTP İsteği]) --&gt; AUTH{JWT Token&lt;br/&gt;Kontrolü}\n    \n    AUTH --&gt;|Geçersiz| UNAUTH[401 Unauthorized]\n    AUTH --&gt;|Geçerli| ROUTE{Endpoint&lt;br/&gt;Yönlendirme}\n    \n    ROUTE --&gt;|/auth/*| AUTH_API[Authentication API&lt;br/&gt;Login/Logout/Profile]\n    ROUTE --&gt;|/api/dashboard| DASH_API[Dashboard API&lt;br/&gt;Sistem Durumu]\n    ROUTE --&gt;|/api/management| MGMT_API[Management API&lt;br/&gt;Kullanıcı/Kurum Yönetimi]\n    ROUTE --&gt;|/optimize| OPT_API[Optimization API&lt;br/&gt;CP-SAT Çözücü]\n    ROUTE --&gt;|/api/results| RES_API[Results API&lt;br/&gt;Sonuç Görüntüleme]\n    ROUTE --&gt;|/webhook| HOOK_API[Webhook API&lt;br/&gt;n8n Entegrasyonu]\n    \n    AUTH_API --&gt; DB[(MySQL&lt;br/&gt;Veritabanı)]\n    DASH_API --&gt; DB\n    MGMT_API --&gt; DB\n    RES_API --&gt; DB\n    \n    OPT_API --&gt; BUILDER[CP-SAT Model&lt;br/&gt;Builder]\n    BUILDER --&gt; SOLVER[Google OR-Tools&lt;br/&gt;CP-SAT Solver]\n    SOLVER --&gt; RESULT[Optimizasyon&lt;br/&gt;Sonucu]\n    \n    HOOK_API --&gt; N8N[n8n Workflow&lt;br/&gt;Tetikleme]\n    N8N --&gt; CSV[CSV Dosya&lt;br/&gt;İşleme]\n    N8N --&gt; YAML[YAML Konfigürasyon&lt;br/&gt;Okuma]\n    \n    AUTH_API --&gt; RESPONSE[JSON Response]\n    DASH_API --&gt; RESPONSE\n    MGMT_API --&gt; RESPONSE\n    RESULT --&gt; RESPONSE\n    RES_API --&gt; RESPONSE\n    HOOK_API --&gt; RESPONSE\n    \n    style AUTH fill:#ffcdd2\n    style ROUTE fill:#e1f5fe\n    style DB fill:#fff3e0\n    style BUILDER fill:#e8f5e8\n    style N8N fill:#fce4ec&quot;&#xa;}" id="YTHDeGnD4PDt1OT0c1N5-44">
          <mxCell style="shape=image;noLabel=1;verticalAlign=top;imageAspect=1;image=data:image/svg+xml,PHN2ZyBhcmlhLXJvbGVkZXNjcmlwdGlvbj0iZmxvd2NoYXJ0LXYyIiByb2xlPSJncmFwaGljcy1kb2N1bWVudCBkb2N1bWVudCIgdmlld0JveD0iMCAwIDE1NDQuODY1NzIyNjU2MjUgMTMwNy4yMDAwNzMyNDIxODc1IiBzdHlsZT0ibWF4LXdpZHRoOiAxNTQ0Ljg2NTcyMjY1NjI1cHg7IiBjbGFzcz0iZmxvd2NoYXJ0IiB4bWxucz0iaHR0cDovL3d3dy53My5vcmcvMjAwMC9zdmciIHdpZHRoPSIxMDAlIiBpZD0iZ2VNZXJtYWlkT3V0cHV0LTE3NDk0Mjg5MjgzMzkiPjxzdHlsZT4jZ2VNZXJtYWlkT3V0cHV0LTE3NDk0Mjg5MjgzMzl7Zm9udC1mYW1pbHk6InRyZWJ1Y2hldCBtcyIsdmVyZGFuYSxhcmlhbCxzYW5zLXNlcmlmO2ZvbnQtc2l6ZToxNnB4O2ZpbGw6IzAwMDAwMDt9QGtleWZyYW1lcyBlZGdlLWFuaW1hdGlvbi1mcmFtZXtmcm9te3N0cm9rZS1kYXNob2Zmc2V0OjA7fX1Aa2V5ZnJhbWVzIGRhc2h7dG97c3Ryb2tlLWRhc2hvZmZzZXQ6MDt9fSNnZU1lcm1haWRPdXRwdXQtMTc0OTQyODkyODMzOSAuZWRnZS1hbmltYXRpb24tc2xvd3tzdHJva2UtZGFzaGFycmF5OjksNSFpbXBvcnRhbnQ7c3Ryb2tlLWRhc2hvZmZzZXQ6OTAwO2FuaW1hdGlvbjpkYXNoIDUwcyBsaW5lYXIgaW5maW5pdGU7c3Ryb2tlLWxpbmVjYXA6cm91bmQ7fSNnZU1lcm1haWRPdXRwdXQtMTc0OTQyODkyODMzOSAuZWRnZS1hbmltYXRpb24tZmFzdHtzdHJva2UtZGFzaGFycmF5OjksNSFpbXBvcnRhbnQ7c3Ryb2tlLWRhc2hvZmZzZXQ6OTAwO2FuaW1hdGlvbjpkYXNoIDIwcyBsaW5lYXIgaW5maW5pdGU7c3Ryb2tlLWxpbmVjYXA6cm91bmQ7fSNnZU1lcm1haWRPdXRwdXQtMTc0OTQyODkyODMzOSAuZXJyb3ItaWNvbntmaWxsOiM1NTIyMjI7fSNnZU1lcm1haWRPdXRwdXQtMTc0OTQyODkyODMzOSAuZXJyb3ItdGV4dHtmaWxsOiM1NTIyMjI7c3Ryb2tlOiM1NTIyMjI7fSNnZU1lcm1haWRPdXRwdXQtMTc0OTQyODkyODMzOSAuZWRnZS10aGlja25lc3Mtbm9ybWFse3N0cm9rZS13aWR0aDoxcHg7fSNnZU1lcm1haWRPdXRwdXQtMTc0OTQyODkyODMzOSAuZWRnZS10aGlja25lc3MtdGhpY2t7c3Ryb2tlLXdpZHRoOjMuNXB4O30jZ2VNZXJtYWlkT3V0cHV0LTE3NDk0Mjg5MjgzMzkgLmVkZ2UtcGF0dGVybi1zb2xpZHtzdHJva2UtZGFzaGFycmF5OjA7fSNnZU1lcm1haWRPdXRwdXQtMTc0OTQyODkyODMzOSAuZWRnZS10aGlja25lc3MtaW52aXNpYmxle3N0cm9rZS13aWR0aDowO2ZpbGw6bm9uZTt9I2dlTWVybWFpZE91dHB1dC0xNzQ5NDI4OTI4MzM5IC5lZGdlLXBhdHRlcm4tZGFzaGVke3N0cm9rZS1kYXNoYXJyYXk6Mzt9I2dlTWVybWFpZE91dHB1dC0xNzQ5NDI4OTI4MzM5IC5lZGdlLXBhdHRlcm4tZG90dGVke3N0cm9rZS1kYXNoYXJyYXk6Mjt9I2dlTWVybWFpZE91dHB1dC0xNzQ5NDI4OTI4MzM5IC5tYXJrZXJ7ZmlsbDojNjY2O3N0cm9rZTojNjY2O30jZ2VNZXJtYWlkT3V0cHV0LTE3NDk0Mjg5MjgzMzkgLm1hcmtlci5jcm9zc3tzdHJva2U6IzY2Njt9I2dlTWVybWFpZE91dHB1dC0xNzQ5NDI4OTI4MzM5IHN2Z3tmb250LWZhbWlseToidHJlYnVjaGV0IG1zIix2ZXJkYW5hLGFyaWFsLHNhbnMtc2VyaWY7Zm9udC1zaXplOjE2cHg7fSNnZU1lcm1haWRPdXRwdXQtMTc0OTQyODkyODMzOSBwe21hcmdpbjowO30jZ2VNZXJtYWlkT3V0cHV0LTE3NDk0Mjg5MjgzMzkgLmxhYmVse2ZvbnQtZmFtaWx5OiJ0cmVidWNoZXQgbXMiLHZlcmRhbmEsYXJpYWwsc2Fucy1zZXJpZjtjb2xvcjojMDAwMDAwO30jZ2VNZXJtYWlkT3V0cHV0LTE3NDk0Mjg5MjgzMzkgLmNsdXN0ZXItbGFiZWwgdGV4dHtmaWxsOiMzMzM7fSNnZU1lcm1haWRPdXRwdXQtMTc0OTQyODkyODMzOSAuY2x1c3Rlci1sYWJlbCBzcGFue2NvbG9yOiMzMzM7fSNnZU1lcm1haWRPdXRwdXQtMTc0OTQyODkyODMzOSAuY2x1c3Rlci1sYWJlbCBzcGFuIHB7YmFja2dyb3VuZC1jb2xvcjp0cmFuc3BhcmVudDt9I2dlTWVybWFpZE91dHB1dC0xNzQ5NDI4OTI4MzM5IC5sYWJlbCB0ZXh0LCNnZU1lcm1haWRPdXRwdXQtMTc0OTQyODkyODMzOSBzcGFue2ZpbGw6IzAwMDAwMDtjb2xvcjojMDAwMDAwO30jZ2VNZXJtYWlkT3V0cHV0LTE3NDk0Mjg5MjgzMzkgLm5vZGUgcmVjdCwjZ2VNZXJtYWlkT3V0cHV0LTE3NDk0Mjg5MjgzMzkgLm5vZGUgY2lyY2xlLCNnZU1lcm1haWRPdXRwdXQtMTc0OTQyODkyODMzOSAubm9kZSBlbGxpcHNlLCNnZU1lcm1haWRPdXRwdXQtMTc0OTQyODkyODMzOSAubm9kZSBwb2x5Z29uLCNnZU1lcm1haWRPdXRwdXQtMTc0OTQyODkyODMzOSAubm9kZSBwYXRoe2ZpbGw6I2VlZTtzdHJva2U6Izk5OTtzdHJva2Utd2lkdGg6MXB4O30jZ2VNZXJtYWlkT3V0cHV0LTE3NDk0Mjg5MjgzMzkgLnJvdWdoLW5vZGUgLmxhYmVsIHRleHQsI2dlTWVybWFpZE91dHB1dC0xNzQ5NDI4OTI4MzM5IC5ub2RlIC5sYWJlbCB0ZXh0LCNnZU1lcm1haWRPdXRwdXQtMTc0OTQyODkyODMzOSAuaW1hZ2Utc2hhcGUgLmxhYmVsLCNnZU1lcm1haWRPdXRwdXQtMTc0OTQyODkyODMzOSAuaWNvbi1zaGFwZSAubGFiZWx7dGV4dC1hbmNob3I6bWlkZGxlO30jZ2VNZXJtYWlkT3V0cHV0LTE3NDk0Mjg5MjgzMzkgLm5vZGUgLmthdGV4IHBhdGh7ZmlsbDojMDAwO3N0cm9rZTojMDAwO3N0cm9rZS13aWR0aDoxcHg7fSNnZU1lcm1haWRPdXRwdXQtMTc0OTQyODkyODMzOSAucm91Z2gtbm9kZSAubGFiZWwsI2dlTWVybWFpZE91dHB1dC0xNzQ5NDI4OTI4MzM5IC5ub2RlIC5sYWJlbCwjZ2VNZXJtYWlkT3V0cHV0LTE3NDk0Mjg5MjgzMzkgLmltYWdlLXNoYXBlIC5sYWJlbCwjZ2VNZXJtYWlkT3V0cHV0LTE3NDk0Mjg5MjgzMzkgLmljb24tc2hhcGUgLmxhYmVse3RleHQtYWxpZ246Y2VudGVyO30jZ2VNZXJtYWlkT3V0cHV0LTE3NDk0Mjg5MjgzMzkgLm5vZGUuY2xpY2thYmxle2N1cnNvcjpwb2ludGVyO30jZ2VNZXJtYWlkT3V0cHV0LTE3NDk0Mjg5MjgzMzkgLnJvb3QgLmFuY2hvciBwYXRoe2ZpbGw6IzY2NiFpbXBvcnRhbnQ7c3Ryb2tlLXdpZHRoOjA7c3Ryb2tlOiM2NjY7fSNnZU1lcm1haWRPdXRwdXQtMTc0OTQyODkyODMzOSAuYXJyb3doZWFkUGF0aHtmaWxsOiMzMzMzMzM7fSNnZU1lcm1haWRPdXRwdXQtMTc0OTQyODkyODMzOSAuZWRnZVBhdGggLnBhdGh7c3Ryb2tlOiM2NjY7c3Ryb2tlLXdpZHRoOjIuMHB4O30jZ2VNZXJtYWlkT3V0cHV0LTE3NDk0Mjg5MjgzMzkgLmZsb3djaGFydC1saW5re3N0cm9rZTojNjY2O2ZpbGw6bm9uZTt9I2dlTWVybWFpZE91dHB1dC0xNzQ5NDI4OTI4MzM5IC5lZGdlTGFiZWx7YmFja2dyb3VuZC1jb2xvcjp3aGl0ZTt0ZXh0LWFsaWduOmNlbnRlcjt9I2dlTWVybWFpZE91dHB1dC0xNzQ5NDI4OTI4MzM5IC5lZGdlTGFiZWwgcHtiYWNrZ3JvdW5kLWNvbG9yOndoaXRlO30jZ2VNZXJtYWlkT3V0cHV0LTE3NDk0Mjg5MjgzMzkgLmVkZ2VMYWJlbCByZWN0e29wYWNpdHk6MC41O2JhY2tncm91bmQtY29sb3I6d2hpdGU7ZmlsbDp3aGl0ZTt9I2dlTWVybWFpZE91dHB1dC0xNzQ5NDI4OTI4MzM5IC5sYWJlbEJrZ3tiYWNrZ3JvdW5kLWNvbG9yOnJnYmEoMjU1LCAyNTUsIDI1NSwgMC41KTt9I2dlTWVybWFpZE91dHB1dC0xNzQ5NDI4OTI4MzM5IC5jbHVzdGVyIHJlY3R7ZmlsbDpoc2woMCwgMCUsIDk4LjkyMTU2ODYyNzUlKTtzdHJva2U6IzcwNzA3MDtzdHJva2Utd2lkdGg6MXB4O30jZ2VNZXJtYWlkT3V0cHV0LTE3NDk0Mjg5MjgzMzkgLmNsdXN0ZXIgdGV4dHtmaWxsOiMzMzM7fSNnZU1lcm1haWRPdXRwdXQtMTc0OTQyODkyODMzOSAuY2x1c3RlciBzcGFue2NvbG9yOiMzMzM7fSNnZU1lcm1haWRPdXRwdXQtMTc0OTQyODkyODMzOSBkaXYubWVybWFpZFRvb2x0aXB7cG9zaXRpb246YWJzb2x1dGU7dGV4dC1hbGlnbjpjZW50ZXI7bWF4LXdpZHRoOjIwMHB4O3BhZGRpbmc6MnB4O2ZvbnQtZmFtaWx5OiJ0cmVidWNoZXQgbXMiLHZlcmRhbmEsYXJpYWwsc2Fucy1zZXJpZjtmb250LXNpemU6MTJweDtiYWNrZ3JvdW5kOmhzbCgtMTYwLCAwJSwgOTMuMzMzMzMzMzMzMyUpO2JvcmRlcjoxcHggc29saWQgIzcwNzA3MDtib3JkZXItcmFkaXVzOjJweDtwb2ludGVyLWV2ZW50czpub25lO3otaW5kZXg6MTAwO30jZ2VNZXJtYWlkT3V0cHV0LTE3NDk0Mjg5MjgzMzkgLmZsb3djaGFydFRpdGxlVGV4dHt0ZXh0LWFuY2hvcjptaWRkbGU7Zm9udC1zaXplOjE4cHg7ZmlsbDojMDAwMDAwO30jZ2VNZXJtYWlkT3V0cHV0LTE3NDk0Mjg5MjgzMzkgcmVjdC50ZXh0e2ZpbGw6bm9uZTtzdHJva2Utd2lkdGg6MDt9I2dlTWVybWFpZE91dHB1dC0xNzQ5NDI4OTI4MzM5IC5pY29uLXNoYXBlLCNnZU1lcm1haWRPdXRwdXQtMTc0OTQyODkyODMzOSAuaW1hZ2Utc2hhcGV7YmFja2dyb3VuZC1jb2xvcjp3aGl0ZTt0ZXh0LWFsaWduOmNlbnRlcjt9I2dlTWVybWFpZE91dHB1dC0xNzQ5NDI4OTI4MzM5IC5pY29uLXNoYXBlIHAsI2dlTWVybWFpZE91dHB1dC0xNzQ5NDI4OTI4MzM5IC5pbWFnZS1zaGFwZSBwe2JhY2tncm91bmQtY29sb3I6d2hpdGU7cGFkZGluZzoycHg7fSNnZU1lcm1haWRPdXRwdXQtMTc0OTQyODkyODMzOSAuaWNvbi1zaGFwZSByZWN0LCNnZU1lcm1haWRPdXRwdXQtMTc0OTQyODkyODMzOSAuaW1hZ2Utc2hhcGUgcmVjdHtvcGFjaXR5OjAuNTtiYWNrZ3JvdW5kLWNvbG9yOndoaXRlO2ZpbGw6d2hpdGU7fSNnZU1lcm1haWRPdXRwdXQtMTc0OTQyODkyODMzOSA6cm9vdHstLW1lcm1haWQtZm9udC1mYW1pbHk6InRyZWJ1Y2hldCBtcyIsdmVyZGFuYSxhcmlhbCxzYW5zLXNlcmlmO308L3N0eWxlPjxnPjxtYXJrZXIgb3JpZW50PSJhdXRvIiBtYXJrZXJIZWlnaHQ9IjgiIG1hcmtlcldpZHRoPSI4IiBtYXJrZXJVbml0cz0idXNlclNwYWNlT25Vc2UiIHJlZlk9IjUiIHJlZlg9IjUiIHZpZXdCb3g9IjAgMCAxMCAxMCIgY2xhc3M9Im1hcmtlciBmbG93Y2hhcnQtdjIiIGlkPSJnZU1lcm1haWRPdXRwdXQtMTc0OTQyODkyODMzOV9mbG93Y2hhcnQtdjItcG9pbnRFbmQiPjxwYXRoIHN0eWxlPSJzdHJva2Utd2lkdGg6IDE7IHN0cm9rZS1kYXNoYXJyYXk6IDEsIDA7IiBjbGFzcz0iYXJyb3dNYXJrZXJQYXRoIiBkPSJNIDAgMCBMIDEwIDUgTCAwIDEwIHoiPjwvcGF0aD48L21hcmtlcj48bWFya2VyIG9yaWVudD0iYXV0byIgbWFya2VySGVpZ2h0PSI4IiBtYXJrZXJXaWR0aD0iOCIgbWFya2VyVW5pdHM9InVzZXJTcGFjZU9uVXNlIiByZWZZPSI1IiByZWZYPSI0LjUiIHZpZXdCb3g9IjAgMCAxMCAxMCIgY2xhc3M9Im1hcmtlciBmbG93Y2hhcnQtdjIiIGlkPSJnZU1lcm1haWRPdXRwdXQtMTc0OTQyODkyODMzOV9mbG93Y2hhcnQtdjItcG9pbnRTdGFydCI+PHBhdGggc3R5bGU9InN0cm9rZS13aWR0aDogMTsgc3Ryb2tlLWRhc2hhcnJheTogMSwgMDsiIGNsYXNzPSJhcnJvd01hcmtlclBhdGgiIGQ9Ik0gMCA1IEwgMTAgMTAgTCAxMCAwIHoiPjwvcGF0aD48L21hcmtlcj48bWFya2VyIG9yaWVudD0iYXV0byIgbWFya2VySGVpZ2h0PSIxMSIgbWFya2VyV2lkdGg9IjExIiBtYXJrZXJVbml0cz0idXNlclNwYWNlT25Vc2UiIHJlZlk9IjUiIHJlZlg9IjExIiB2aWV3Qm94PSIwIDAgMTAgMTAiIGNsYXNzPSJtYXJrZXIgZmxvd2NoYXJ0LXYyIiBpZD0iZ2VNZXJtYWlkT3V0cHV0LTE3NDk0Mjg5MjgzMzlfZmxvd2NoYXJ0LXYyLWNpcmNsZUVuZCI+PGNpcmNsZSBzdHlsZT0ic3Ryb2tlLXdpZHRoOiAxOyBzdHJva2UtZGFzaGFycmF5OiAxLCAwOyIgY2xhc3M9ImFycm93TWFya2VyUGF0aCIgcj0iNSIgY3k9IjUiIGN4PSI1Ij48L2NpcmNsZT48L21hcmtlcj48bWFya2VyIG9yaWVudD0iYXV0byIgbWFya2VySGVpZ2h0PSIxMSIgbWFya2VyV2lkdGg9IjExIiBtYXJrZXJVbml0cz0idXNlclNwYWNlT25Vc2UiIHJlZlk9IjUiIHJlZlg9Ii0xIiB2aWV3Qm94PSIwIDAgMTAgMTAiIGNsYXNzPSJtYXJrZXIgZmxvd2NoYXJ0LXYyIiBpZD0iZ2VNZXJtYWlkT3V0cHV0LTE3NDk0Mjg5MjgzMzlfZmxvd2NoYXJ0LXYyLWNpcmNsZVN0YXJ0Ij48Y2lyY2xlIHN0eWxlPSJzdHJva2Utd2lkdGg6IDE7IHN0cm9rZS1kYXNoYXJyYXk6IDEsIDA7IiBjbGFzcz0iYXJyb3dNYXJrZXJQYXRoIiByPSI1IiBjeT0iNSIgY3g9IjUiPjwvY2lyY2xlPjwvbWFya2VyPjxtYXJrZXIgb3JpZW50PSJhdXRvIiBtYXJrZXJIZWlnaHQ9IjExIiBtYXJrZXJXaWR0aD0iMTEiIG1hcmtlclVuaXRzPSJ1c2VyU3BhY2VPblVzZSIgcmVmWT0iNS4yIiByZWZYPSIxMiIgdmlld0JveD0iMCAwIDExIDExIiBjbGFzcz0ibWFya2VyIGNyb3NzIGZsb3djaGFydC12MiIgaWQ9ImdlTWVybWFpZE91dHB1dC0xNzQ5NDI4OTI4MzM5X2Zsb3djaGFydC12Mi1jcm9zc0VuZCI+PHBhdGggc3R5bGU9InN0cm9rZS13aWR0aDogMjsgc3Ryb2tlLWRhc2hhcnJheTogMSwgMDsiIGNsYXNzPSJhcnJvd01hcmtlclBhdGgiIGQ9Ik0gMSwxIGwgOSw5IE0gMTAsMSBsIC05LDkiPjwvcGF0aD48L21hcmtlcj48bWFya2VyIG9yaWVudD0iYXV0byIgbWFya2VySGVpZ2h0PSIxMSIgbWFya2VyV2lkdGg9IjExIiBtYXJrZXJVbml0cz0idXNlclNwYWNlT25Vc2UiIHJlZlk9IjUuMiIgcmVmWD0iLTEiIHZpZXdCb3g9IjAgMCAxMSAxMSIgY2xhc3M9Im1hcmtlciBjcm9zcyBmbG93Y2hhcnQtdjIiIGlkPSJnZU1lcm1haWRPdXRwdXQtMTc0OTQyODkyODMzOV9mbG93Y2hhcnQtdjItY3Jvc3NTdGFydCI+PHBhdGggc3R5bGU9InN0cm9rZS13aWR0aDogMjsgc3Ryb2tlLWRhc2hhcnJheTogMSwgMDsiIGNsYXNzPSJhcnJvd01hcmtlclBhdGgiIGQ9Ik0gMSwxIGwgOSw5IE0gMTAsMSBsIC05LDkiPjwvcGF0aD48L21hcmtlcj48ZyBjbGFzcz0icm9vdCI+PGcgY2xhc3M9ImNsdXN0ZXJzIj48L2c+PGcgY2xhc3M9ImVkZ2VQYXRocyI+PHBhdGggbWFya2VyLWVuZD0idXJsKCNnZU1lcm1haWRPdXRwdXQtMTc0OTQyODkyODMzOV9mbG93Y2hhcnQtdjItcG9pbnRFbmQpIiBzdHlsZT0iIiBjbGFzcz0iZWRnZS10aGlja25lc3Mtbm9ybWFsIGVkZ2UtcGF0dGVybi1zb2xpZCBlZGdlLXRoaWNrbmVzcy1ub3JtYWwgZWRnZS1wYXR0ZXJuLXNvbGlkIGZsb3djaGFydC1saW5rIiBpZD0iTF9TVEFSVF9BVVRIXzAiIGQ9Ik01MTIuNzI4LDQ3TDUxMi43MjgsNTEuMTY3QzUxMi43MjgsNTUuMzMzLDUxMi43MjgsNjMuNjY3LDUxMi43OTgsNzEuNDE3QzUxMi44NjksNzkuMTY3LDUxMy4wMDksODYuMzM0LDUxMy4wNzksODkuOTE3TDUxMy4xNSw5My41MDEiPjwvcGF0aD48cGF0aCBtYXJrZXItZW5kPSJ1cmwoI2dlTWVybWFpZE91dHB1dC0xNzQ5NDI4OTI4MzM5X2Zsb3djaGFydC12Mi1wb2ludEVuZCkiIHN0eWxlPSIiIGNsYXNzPSJlZGdlLXRoaWNrbmVzcy1ub3JtYWwgZWRnZS1wYXR0ZXJuLXNvbGlkIGVkZ2UtdGhpY2tuZXNzLW5vcm1hbCBlZGdlLXBhdHRlcm4tc29saWQgZmxvd2NoYXJ0LWxpbmsiIGlkPSJMX0FVVEhfVU5BVVRIXzAiIGQ9Ik00NzQuNjk3LDIxMy4xODJMNDYyLjEwNywyMjUuNjJDNDQ5LjUxNiwyMzguMDU5LDQyNC4zMzUsMjYyLjkzNiw0MTEuNzQ0LDI5MC4zMzdDMzk5LjE1MywzMTcuNzM3LDM5OS4xNTMsMzQ3LjY2MiwzOTkuMTUzLDM2Mi42MjVMMzk5LjE1MywzNzcuNTg3Ij48L3BhdGg+PHBhdGggbWFya2VyLWVuZD0idXJsKCNnZU1lcm1haWRPdXRwdXQtMTc0OTQyODkyODMzOV9mbG93Y2hhcnQtdjItcG9pbnRFbmQpIiBzdHlsZT0iIiBjbGFzcz0iZWRnZS10aGlja25lc3Mtbm9ybWFsIGVkZ2UtcGF0dGVybi1zb2xpZCBlZGdlLXRoaWNrbmVzcy1ub3JtYWwgZWRnZS1wYXR0ZXJuLXNvbGlkIGZsb3djaGFydC1saW5rIiBpZD0iTF9BVVRIX1JPVVRFXzAiIGQ9Ik01NTEuNzU5LDIxMy4xODJMNTY0LjE4MywyMjUuNjJDNTc2LjYwNywyMzguMDU5LDYwMS40NTUsMjYyLjkzNiw2MTMuOTUzLDI4MC44OTFDNjI2LjQ1MiwyOTguODQ2LDYyNi42MDEsMzA5Ljg3OSw2MjYuNjc1LDMxNS4zOTZMNjI2Ljc0OSwzMjAuOTEzIj48L3BhdGg+PHBhdGggbWFya2VyLWVuZD0idXJsKCNnZU1lcm1haWRPdXRwdXQtMTc0OTQyODkyODMzOV9mbG93Y2hhcnQtdjItcG9pbnRFbmQpIiBzdHlsZT0iIiBjbGFzcz0iZWRnZS10aGlja25lc3Mtbm9ybWFsIGVkZ2UtcGF0dGVybi1zb2xpZCBlZGdlLXRoaWNrbmVzcy1ub3JtYWwgZWRnZS1wYXR0ZXJuLXNvbGlkIGZsb3djaGFydC1saW5rIiBpZD0iTF9ST1VURV9BVVRIX0FQSV8wIiBkPSJNNTU4LjYxOSw0MjUuMDc5TDQ4NC4zNTgsNDQyLjM5M0M0MTAuMDk2LDQ1OS43MDcsMjYxLjU3Myw0OTQuMzM1LDE4Ny4zMTIsNTI0LjE4MkMxMTMuMDUsNTU0LjAyOSwxMTMuMDUsNTc5LjA5NiwxMTMuMDUsNjAyLjI5NkMxMTMuMDUsNjI1LjQ5NiwxMTMuMDUsNjQ2LjgyOSwxMTMuMDUsNjY4LjE2MkMxMTMuMDUsNjg5LjQ5NiwxMTMuMDUsNzEwLjgyOSwxMTMuMDUsNzMyLjE2MkMxMTMuMDUsNzUzLjQ5NiwxMTMuMDUsNzc0LjgyOSwxMTMuMDUsNzk2LjE2MkMxMTMuMDUsODE3LjQ5NiwxMTMuMDUsODM4LjgyOSwxMTMuMDUsODYwLjE2MkMxMTMuMDUsODgxLjQ5NiwxMTMuMDUsOTAyLjgyOSwxMTMuMDUsOTE2Ljk5NkMxMTMuMDUsOTMxLjE2MiwxMTMuMDUsOTM4LjE2MiwxMTMuMDUsOTQxLjY2MkwxMTMuMDUsOTQ1LjE2MiI+PC9wYXRoPjxwYXRoIG1hcmtlci1lbmQ9InVybCgjZ2VNZXJtYWlkT3V0cHV0LTE3NDk0Mjg5MjgzMzlfZmxvd2NoYXJ0LXYyLXBvaW50RW5kKSIgc3R5bGU9IiIgY2xhc3M9ImVkZ2UtdGhpY2tuZXNzLW5vcm1hbCBlZGdlLXBhdHRlcm4tc29saWQgZWRnZS10aGlja25lc3Mtbm9ybWFsIGVkZ2UtcGF0dGVybi1zb2xpZCBmbG93Y2hhcnQtbGluayIgaWQ9IkxfUk9VVEVfREFTSF9BUElfMCIgZD0iTTU2OC4yOSw0MzQuNzQ5TDUzMi4yMTIsNDUwLjQ1MUM0OTYuMTM1LDQ2Ni4xNTQsNDIzLjk4LDQ5Ny41NTgsMzg3LjkwMiw1MjUuNzk0QzM1MS44MjUsNTU0LjAyOSwzNTEuODI1LDU3OS4wOTYsMzUxLjgyNSw2MDIuMjk2QzM1MS44MjUsNjI1LjQ5NiwzNTEuODI1LDY0Ni44MjksMzUxLjgyNSw2NjguMTYyQzM1MS44MjUsNjg5LjQ5NiwzNTEuODI1LDcxMC44MjksMzUxLjgyNSw3MzIuMTYyQzM1MS44MjUsNzUzLjQ5NiwzNTEuODI1LDc3NC44MjksMzUxLjgyNSw3OTYuMTYyQzM1MS44MjUsODE3LjQ5NiwzNTEuODI1LDgzOC44MjksMzUxLjgyNSw4NjAuMTYyQzM1MS44MjUsODgxLjQ5NiwzNTEuODI1LDkwMi44MjksMzUxLjgyNSw5MTYuOTk2QzM1MS44MjUsOTMxLjE2MiwzNTEuODI1LDkzOC4xNjIsMzUxLjgyNSw5NDEuNjYyTDM1MS44MjUsOTQ1LjE2MiI+PC9wYXRoPjxwYXRoIG1hcmtlci1lbmQ9InVybCgjZ2VNZXJtYWlkT3V0cHV0LTE3NDk0Mjg5MjgzMzlfZmxvd2NoYXJ0LXYyLXBvaW50RW5kKSIgc3R5bGU9IiIgY2xhc3M9ImVkZ2UtdGhpY2tuZXNzLW5vcm1hbCBlZGdlLXBhdHRlcm4tc29saWQgZWRnZS10aGlja25lc3Mtbm9ybWFsIGVkZ2UtcGF0dGVybi1zb2xpZCBmbG93Y2hhcnQtbGluayIgaWQ9IkxfUk9VVEVfTUdNVF9BUElfMCIgZD0iTTYxNS4zNjIsNDgxLjgyMkw2MTQuMDMsNDg5LjY3OUM2MTIuNjk4LDQ5Ny41MzUsNjEwLjAzMyw1MTMuMjQ5LDYwOC43MDEsNTMzLjYzOUM2MDcuMzY5LDU1NC4wMjksNjA3LjM2OSw1NzkuMDk2LDYwNy4zNjksNjAyLjI5NkM2MDcuMzY5LDYyNS40OTYsNjA3LjM2OSw2NDYuODI5LDYwNy4zNjksNjY4LjE2MkM2MDcuMzY5LDY4OS40OTYsNjA3LjM2OSw3MTAuODI5LDYwNy4zNjksNzMyLjE2MkM2MDcuMzY5LDc1My40OTYsNjA3LjM2OSw3NzQuODI5LDYwNy4zNjksNzk2LjE2MkM2MDcuMzY5LDgxNy40OTYsNjA3LjM2OSw4MzguODI5LDYwNy4zNjksODYwLjE2MkM2MDcuMzY5LDg4MS40OTYsNjA3LjM2OSw5MDIuODI5LDYwNy4zNjksOTE2Ljk5NkM2MDcuMzY5LDkzMS4xNjIsNjA3LjM2OSw5MzguMTYyLDYwNy4zNjksOTQxLjY2Mkw2MDcuMzY5LDk0NS4xNjIiPjwvcGF0aD48cGF0aCBtYXJrZXItZW5kPSJ1cmwoI2dlTWVybWFpZE91dHB1dC0xNzQ5NDI4OTI4MzM5X2Zsb3djaGFydC12Mi1wb2ludEVuZCkiIHN0eWxlPSIiIGNsYXNzPSJlZGdlLXRoaWNrbmVzcy1ub3JtYWwgZWRnZS1wYXR0ZXJuLXNvbGlkIGVkZ2UtdGhpY2tuZXNzLW5vcm1hbCBlZGdlLXBhdHRlcm4tc29saWQgZmxvd2NoYXJ0LWxpbmsiIGlkPSJMX1JPVVRFX09QVF9BUElfMCIgZD0iTTY4Mi4xMzgsNDM3LjkyOEw3MTEuMzI1LDQ1My4xQzc0MC41MTMsNDY4LjI3Myw3OTguODg4LDQ5OC42MTgsODI4LjA3NSw1MTkuMTU3Qzg1Ny4yNjIsNTM5LjY5Niw4NTcuMjYyLDU1MC40MjksODU3LjI2Miw1NTUuNzk2TDg1Ny4yNjIsNTYxLjE2MiI+PC9wYXRoPjxwYXRoIG1hcmtlci1lbmQ9InVybCgjZ2VNZXJtYWlkT3V0cHV0LTE3NDk0Mjg5MjgzMzlfZmxvd2NoYXJ0LXYyLXBvaW50RW5kKSIgc3R5bGU9IiIgY2xhc3M9ImVkZ2UtdGhpY2tuZXNzLW5vcm1hbCBlZGdlLXBhdHRlcm4tc29saWQgZWRnZS10aGlja25lc3Mtbm9ybWFsIGVkZ2UtcGF0dGVybi1zb2xpZCBmbG93Y2hhcnQtbGluayIgaWQ9IkxfUk9VVEVfUkVTX0FQSV8wIiBkPSJNNjkzLjQ5Myw0MjYuNTczTDc1OC44MTQsNDQzLjYzOEM4MjQuMTM1LDQ2MC43MDMsOTU0Ljc3Nyw0OTQuODMzLDEwMjAuMDk4LDUyNC40MzFDMTA4NS40MTksNTU0LjAyOSwxMDg1LjQxOSw1NzkuMDk2LDEwODUuNDE5LDYwMi4yOTZDMTA4NS40MTksNjI1LjQ5NiwxMDg1LjQxOSw2NDYuODI5LDEwODUuNDE5LDY2OC4xNjJDMTA4NS40MTksNjg5LjQ5NiwxMDg1LjQxOSw3MTAuODI5LDEwODUuNDE5LDczMi4xNjJDMTA4NS40MTksNzUzLjQ5NiwxMDg1LjQxOSw3NzQuODI5LDEwODUuNDE5LDc5Ni4xNjJDMTA4NS40MTksODE3LjQ5NiwxMDg1LjQxOSw4MzguODI5LDEwODUuNDE5LDg2MC4xNjJDMTA4NS40MTksODgxLjQ5NiwxMDg1LjQxOSw5MDIuODI5LDEwODUuNDE5LDkxNi45OTZDMTA4NS40MTksOTMxLjE2MiwxMDg1LjQxOSw5MzguMTYyLDEwODUuNDE5LDk0MS42NjJMMTA4NS40MTksOTQ1LjE2MiI+PC9wYXRoPjxwYXRoIG1hcmtlci1lbmQ9InVybCgjZ2VNZXJtYWlkT3V0cHV0LTE3NDk0Mjg5MjgzMzlfZmxvd2NoYXJ0LXYyLXBvaW50RW5kKSIgc3R5bGU9IiIgY2xhc3M9ImVkZ2UtdGhpY2tuZXNzLW5vcm1hbCBlZGdlLXBhdHRlcm4tc29saWQgZWRnZS10aGlja25lc3Mtbm9ybWFsIGVkZ2UtcGF0dGVybi1zb2xpZCBmbG93Y2hhcnQtbGluayIgaWQ9IkxfUk9VVEVfSE9PS19BUElfMCIgZD0iTTY5OC42NjEsNDIxLjQwNEw4MDMuNjQ5LDQzOS4zMzFDOTA4LjYzNyw0NTcuMjU3LDExMTguNjEyLDQ5My4xMSwxMjIzLjYsNTIzLjU2OUMxMzI4LjU4OCw1NTQuMDI5LDEzMjguNTg4LDU3OS4wOTYsMTMyOC41ODgsNjAyLjI5NkMxMzI4LjU4OCw2MjUuNDk2LDEzMjguNTg4LDY0Ni44MjksMTMyOC41ODgsNjY4LjE2MkMxMzI4LjU4OCw2ODkuNDk2LDEzMjguNTg4LDcxMC44MjksMTMyOC41ODgsNzMyLjE2MkMxMzI4LjU4OCw3NTMuNDk2LDEzMjguNTg4LDc3NC44MjksMTMyOC41ODgsNzk2LjE2MkMxMzI4LjU4OCw4MTcuNDk2LDEzMjguNTg4LDgzOC44MjksMTMyOC41ODgsODYwLjE2MkMxMzI4LjU4OCw4ODEuNDk2LDEzMjguNTg4LDkwMi44MjksMTMyOC41ODgsOTE2Ljk5NkMxMzI4LjU4OCw5MzEuMTYyLDEzMjguNTg4LDkzOC4xNjIsMTMyOC41ODgsOTQxLjY2MkwxMzI4LjU4OCw5NDUuMTYyIj48L3BhdGg+PHBhdGggbWFya2VyLWVuZD0idXJsKCNnZU1lcm1haWRPdXRwdXQtMTc0OTQyODkyODMzOV9mbG93Y2hhcnQtdjItcG9pbnRFbmQpIiBzdHlsZT0iIiBjbGFzcz0iZWRnZS10aGlja25lc3Mtbm9ybWFsIGVkZ2UtcGF0dGVybi1zb2xpZCBlZGdlLXRoaWNrbmVzcy1ub3JtYWwgZWRnZS1wYXR0ZXJuLXNvbGlkIGZsb3djaGFydC1saW5rIiBpZD0iTF9BVVRIX0FQSV9EQl8wIiBkPSJNMTA2Ljk1NiwxMDI3LjE2MkwxMDYuMzA1LDEwMzEuMzI5QzEwNS42NTQsMTAzNS40OTYsMTA0LjM1MiwxMDQzLjgyOSwxNTcuNzUxLDEwNTguNDVDMjExLjE0OSwxMDczLjA3MSwzMTkuMjQ5LDEwOTMuOTc5LDM3My4yOTgsMTEwNC40MzNMNDI3LjM0OCwxMTE0Ljg4NyI+PC9wYXRoPjxwYXRoIG1hcmtlci1lbmQ9InVybCgjZ2VNZXJtYWlkT3V0cHV0LTE3NDk0Mjg5MjgzMzlfZmxvd2NoYXJ0LXYyLXBvaW50RW5kKSIgc3R5bGU9IiIgY2xhc3M9ImVkZ2UtdGhpY2tuZXNzLW5vcm1hbCBlZGdlLXBhdHRlcm4tc29saWQgZWRnZS10aGlja25lc3Mtbm9ybWFsIGVkZ2UtcGF0dGVybi1zb2xpZCBmbG93Y2hhcnQtbGluayIgaWQ9IkxfREFTSF9BUElfREJfMCIgZD0iTTI4NS4xNjcsMTAyNy4xNjJMMjc4LjA0NSwxMDMxLjMyOUMyNzAuOTI0LDEwMzUuNDk2LDI1Ni42ODEsMTA0My44MjksMjgwLjM5NSwxMDU3LjUyOUMzMDQuMTA5LDEwNzEuMjI4LDM2NS43ODEsMTA5MC4yOTMsMzk2LjYxNywxMDk5LjgyNkw0MjcuNDUzLDExMDkuMzU5Ij48L3BhdGg+PHBhdGggbWFya2VyLWVuZD0idXJsKCNnZU1lcm1haWRPdXRwdXQtMTc0OTQyODkyODMzOV9mbG93Y2hhcnQtdjItcG9pbnRFbmQpIiBzdHlsZT0iIiBjbGFzcz0iZWRnZS10aGlja25lc3Mtbm9ybWFsIGVkZ2UtcGF0dGVybi1zb2xpZCBlZGdlLXRoaWNrbmVzcy1ub3JtYWwgZWRnZS1wYXR0ZXJuLXNvbGlkIGZsb3djaGFydC1saW5rIiBpZD0iTF9NR01UX0FQSV9EQl8wIiBkPSJNNTM1LjYwMiwxMDI3LjE2Mkw1MjcuOTM0LDEwMzEuMzI5QzUyMC4yNjcsMTAzNS40OTYsNTA0LjkzMiwxMDQzLjgyOSw0OTYuNTcxLDEwNTEuNTQ3QzQ4OC4yMSwxMDU5LjI2NCw0ODYuODIzLDEwNjYuMzY2LDQ4Ni4xMjksMTA2OS45MTdMNDg1LjQzNSwxMDczLjQ2NyI+PC9wYXRoPjxwYXRoIG1hcmtlci1lbmQ9InVybCgjZ2VNZXJtYWlkT3V0cHV0LTE3NDk0Mjg5MjgzMzlfZmxvd2NoYXJ0LXYyLXBvaW50RW5kKSIgc3R5bGU9IiIgY2xhc3M9ImVkZ2UtdGhpY2tuZXNzLW5vcm1hbCBlZGdlLXBhdHRlcm4tc29saWQgZWRnZS10aGlja25lc3Mtbm9ybWFsIGVkZ2UtcGF0dGVybi1zb2xpZCBmbG93Y2hhcnQtbGluayIgaWQ9IkxfUkVTX0FQSV9EQl8wIiBkPSJNMTAyMS45OTYsMTAyNy4xNjJMMTAxNS4yMiwxMDMxLjMyOUMxMDA4LjQ0NCwxMDM1LjQ5Niw5OTQuODkyLDEwNDMuODI5LDkxMS44MDcsMTA1OC44NThDODI4LjcyMiwxMDczLjg4Nyw2NzYuMTA0LDEwOTUuNjEyLDU5OS43OTQsMTEwNi40NzRMNTIzLjQ4NSwxMTE3LjMzNyI+PC9wYXRoPjxwYXRoIG1hcmtlci1lbmQ9InVybCgjZ2VNZXJtYWlkT3V0cHV0LTE3NDk0Mjg5MjgzMzlfZmxvd2NoYXJ0LXYyLXBvaW50RW5kKSIgc3R5bGU9IiIgY2xhc3M9ImVkZ2UtdGhpY2tuZXNzLW5vcm1hbCBlZGdlLXBhdHRlcm4tc29saWQgZWRnZS10aGlja25lc3Mtbm9ybWFsIGVkZ2UtcGF0dGVybi1zb2xpZCBmbG93Y2hhcnQtbGluayIgaWQ9IkxfT1BUX0FQSV9CVUlMREVSXzAiIGQ9Ik04NTcuMjYyLDY0My4xNjJMODU3LjI2Miw2NDcuMzI5Qzg1Ny4yNjIsNjUxLjQ5Niw4NTcuMjYyLDY1OS44MjksODU3LjI2Miw2NjcuNDk2Qzg1Ny4yNjIsNjc1LjE2Miw4NTcuMjYyLDY4Mi4xNjIsODU3LjI2Miw2ODUuNjYyTDg1Ny4yNjIsNjg5LjE2MiI+PC9wYXRoPjxwYXRoIG1hcmtlci1lbmQ9InVybCgjZ2VNZXJtYWlkT3V0cHV0LTE3NDk0Mjg5MjgzMzlfZmxvd2NoYXJ0LXYyLXBvaW50RW5kKSIgc3R5bGU9IiIgY2xhc3M9ImVkZ2UtdGhpY2tuZXNzLW5vcm1hbCBlZGdlLXBhdHRlcm4tc29saWQgZWRnZS10aGlja25lc3Mtbm9ybWFsIGVkZ2UtcGF0dGVybi1zb2xpZCBmbG93Y2hhcnQtbGluayIgaWQ9IkxfQlVJTERFUl9TT0xWRVJfMCIgZD0iTTg1Ny4yNjIsNzcxLjE2Mkw4NTcuMjYyLDc3NS4zMjlDODU3LjI2Miw3NzkuNDk2LDg1Ny4yNjIsNzg3LjgyOSw4NTcuMjYyLDc5NS40OTZDODU3LjI2Miw4MDMuMTYyLDg1Ny4yNjIsODEwLjE2Miw4NTcuMjYyLDgxMy42NjJMODU3LjI2Miw4MTcuMTYyIj48L3BhdGg+PHBhdGggbWFya2VyLWVuZD0idXJsKCNnZU1lcm1haWRPdXRwdXQtMTc0OTQyODkyODMzOV9mbG93Y2hhcnQtdjItcG9pbnRFbmQpIiBzdHlsZT0iIiBjbGFzcz0iZWRnZS10aGlja25lc3Mtbm9ybWFsIGVkZ2UtcGF0dGVybi1zb2xpZCBlZGdlLXRoaWNrbmVzcy1ub3JtYWwgZWRnZS1wYXR0ZXJuLXNvbGlkIGZsb3djaGFydC1saW5rIiBpZD0iTF9TT0xWRVJfUkVTVUxUXzAiIGQ9Ik04NTcuMjYyLDg5OS4xNjJMODU3LjI2Miw5MDMuMzI5Qzg1Ny4yNjIsOTA3LjQ5Niw4NTcuMjYyLDkxNS44MjksODU3LjI2Miw5MjMuNDk2Qzg1Ny4yNjIsOTMxLjE2Miw4NTcuMjYyLDkzOC4xNjIsODU3LjI2Miw5NDEuNjYyTDg1Ny4yNjIsOTQ1LjE2MiI+PC9wYXRoPjxwYXRoIG1hcmtlci1lbmQ9InVybCgjZ2VNZXJtYWlkT3V0cHV0LTE3NDk0Mjg5MjgzMzlfZmxvd2NoYXJ0LXYyLXBvaW50RW5kKSIgc3R5bGU9IiIgY2xhc3M9ImVkZ2UtdGhpY2tuZXNzLW5vcm1hbCBlZGdlLXBhdHRlcm4tc29saWQgZWRnZS10aGlja25lc3Mtbm9ybWFsIGVkZ2UtcGF0dGVybi1zb2xpZCBmbG93Y2hhcnQtbGluayIgaWQ9IkxfSE9PS19BUElfTjhOXzAiIGQ9Ik0xMzIyLjQ5NCwxMDI3LjE2MkwxMzIxLjg0MywxMDMxLjMyOUMxMzIxLjE5MiwxMDM1LjQ5NiwxMzE5Ljg5LDEwNDMuODI5LDEzMTkuOTExLDEwNTIuODM5QzEzMTkuOTMyLDEwNjEuODQ4LDEzMjEuMjc3LDEwNzEuNTM0LDEzMjEuOTUsMTA3Ni4zNzZMMTMyMi42MjIsMTA4MS4yMTkiPjwvcGF0aD48cGF0aCBtYXJrZXItZW5kPSJ1cmwoI2dlTWVybWFpZE91dHB1dC0xNzQ5NDI4OTI4MzM5X2Zsb3djaGFydC12Mi1wb2ludEVuZCkiIHN0eWxlPSIiIGNsYXNzPSJlZGdlLXRoaWNrbmVzcy1ub3JtYWwgZWRnZS1wYXR0ZXJuLXNvbGlkIGVkZ2UtdGhpY2tuZXNzLW5vcm1hbCBlZGdlLXBhdHRlcm4tc29saWQgZmxvd2NoYXJ0LWxpbmsiIGlkPSJMX044Tl9DU1ZfMCIgZD0iTTEyNjkuOTkzLDExNjMuMTgxTDEyNjEuNzI1LDExNjguNjg0QzEyNTMuNDU3LDExNzQuMTg4LDEyMzYuOTIsMTE4NS4xOTQsMTIyOC42NTIsMTE5NC4xOTdDMTIyMC4zODQsMTIwMy4yLDEyMjAuMzg0LDEyMTAuMiwxMjIwLjM4NCwxMjEzLjdMMTIyMC4zODQsMTIxNy4yIj48L3BhdGg+PHBhdGggbWFya2VyLWVuZD0idXJsKCNnZU1lcm1haWRPdXRwdXQtMTc0OTQyODkyODMzOV9mbG93Y2hhcnQtdjItcG9pbnRFbmQpIiBzdHlsZT0iIiBjbGFzcz0iZWRnZS10aGlja25lc3Mtbm9ybWFsIGVkZ2UtcGF0dGVybi1zb2xpZCBlZGdlLXRoaWNrbmVzcy1ub3JtYWwgZWRnZS1wYXR0ZXJuLXNvbGlkIGZsb3djaGFydC1saW5rIiBpZD0iTF9OOE5fWUFNTF8wIiBkPSJNMTM4Ny4xODIsMTE2My4xODFMMTM5NS40NSwxMTY4LjY4NEMxNDAzLjcxOCwxMTc0LjE4OCwxNDIwLjI1NSwxMTg1LjE5NCwxNDI4LjUyMywxMTk0LjE5N0MxNDM2Ljc5MSwxMjAzLjIsMTQzNi43OTEsMTIxMC4yLDE0MzYuNzkxLDEyMTMuN0wxNDM2Ljc5MSwxMjE3LjIiPjwvcGF0aD48cGF0aCBtYXJrZXItZW5kPSJ1cmwoI2dlTWVybWFpZE91dHB1dC0xNzQ5NDI4OTI4MzM5X2Zsb3djaGFydC12Mi1wb2ludEVuZCkiIHN0eWxlPSIiIGNsYXNzPSJlZGdlLXRoaWNrbmVzcy1ub3JtYWwgZWRnZS1wYXR0ZXJuLXNvbGlkIGVkZ2UtdGhpY2tuZXNzLW5vcm1hbCBlZGdlLXBhdHRlcm4tc29saWQgZmxvd2NoYXJ0LWxpbmsiIGlkPSJMX0FVVEhfQVBJX1JFU1BPTlNFXzAiIGQ9Ik0xNzkuNzA4LDEwMjcuMTYyTDE4Ni44MywxMDMxLjMyOUMxOTMuOTUxLDEwMzUuNDk2LDIwOC4xOTQsMTA0My44MjksMzIzLjg0OCwxMDU4LjU4MUM0MzkuNTAyLDEwNzMuMzM0LDY1Ni41NjcsMTA5NC41MDUsNzY1LjA5OSwxMTA1LjA5TDg3My42MzEsMTExNS42NzYiPjwvcGF0aD48cGF0aCBtYXJrZXItZW5kPSJ1cmwoI2dlTWVybWFpZE91dHB1dC0xNzQ5NDI4OTI4MzM5X2Zsb3djaGFydC12Mi1wb2ludEVuZCkiIHN0eWxlPSIiIGNsYXNzPSJlZGdlLXRoaWNrbmVzcy1ub3JtYWwgZWRnZS1wYXR0ZXJuLXNvbGlkIGVkZ2UtdGhpY2tuZXNzLW5vcm1hbCBlZGdlLXBhdHRlcm4tc29saWQgZmxvd2NoYXJ0LWxpbmsiIGlkPSJMX0RBU0hfQVBJX1JFU1BPTlNFXzAiIGQ9Ik00MjMuNTkyLDEwMjcuMTYyTDQzMS4yNiwxMDMxLjMyOUM0MzguOTI3LDEwMzUuNDk2LDQ1NC4yNjIsMTA0My44MjksNTI5LjI3MiwxMDU3Ljg2OUM2MDQuMjgzLDEwNzEuOTA4LDczOC45NjksMTA5MS42NTQsODA2LjMxMiwxMTAxLjUyN0w4NzMuNjU1LDExMTEuNCI+PC9wYXRoPjxwYXRoIG1hcmtlci1lbmQ9InVybCgjZ2VNZXJtYWlkT3V0cHV0LTE3NDk0Mjg5MjgzMzlfZmxvd2NoYXJ0LXYyLXBvaW50RW5kKSIgc3R5bGU9IiIgY2xhc3M9ImVkZ2UtdGhpY2tuZXNzLW5vcm1hbCBlZGdlLXBhdHRlcm4tc29saWQgZWRnZS10aGlja25lc3Mtbm9ybWFsIGVkZ2UtcGF0dGVybi1zb2xpZCBmbG93Y2hhcnQtbGluayIgaWQ9IkxfTUdNVF9BUElfUkVTUE9OU0VfMCIgZD0iTTY3Ny40MTUsMTAyNy4xNjJMNjg0Ljg5OCwxMDMxLjMyOUM2OTIuMzgyLDEwMzUuNDk2LDcwNy4zNDksMTA0My44MjksNzQwLjA3NywxMDU1LjYxOEM3NzIuODA1LDEwNjcuNDA3LDgyMy4yOTQsMTA4Mi42NTIsODQ4LjUzOSwxMDkwLjI3NEw4NzMuNzgzLDEwOTcuODk2Ij48L3BhdGg+PHBhdGggbWFya2VyLWVuZD0idXJsKCNnZU1lcm1haWRPdXRwdXQtMTc0OTQyODkyODMzOV9mbG93Y2hhcnQtdjItcG9pbnRFbmQpIiBzdHlsZT0iIiBjbGFzcz0iZWRnZS10aGlja25lc3Mtbm9ybWFsIGVkZ2UtcGF0dGVybi1zb2xpZCBlZGdlLXRoaWNrbmVzcy1ub3JtYWwgZWRnZS1wYXR0ZXJuLXNvbGlkIGZsb3djaGFydC1saW5rIiBpZD0iTF9SRVNVTFRfUkVTUE9OU0VfMCIgZD0iTTg1Ny4yNjIsMTAyNy4xNjJMODU3LjI2MiwxMDMxLjMyOUM4NTcuMjYyLDEwMzUuNDk2LDg1Ny4yNjIsMTA0My44MjksODY3LjUwNiwxMDU1LjExOEM4NzcuNzQ5LDEwNjYuNDA4LDg5OC4yMzYsMTA4MC42NTMsOTA4LjQ3OSwxMDg3Ljc3NUw5MTguNzIzLDEwOTQuODk4Ij48L3BhdGg+PHBhdGggbWFya2VyLWVuZD0idXJsKCNnZU1lcm1haWRPdXRwdXQtMTc0OTQyODkyODMzOV9mbG93Y2hhcnQtdjItcG9pbnRFbmQpIiBzdHlsZT0iIiBjbGFzcz0iZWRnZS10aGlja25lc3Mtbm9ybWFsIGVkZ2UtcGF0dGVybi1zb2xpZCBlZGdlLXRoaWNrbmVzcy1ub3JtYWwgZWRnZS1wYXR0ZXJuLXNvbGlkIGZsb3djaGFydC1saW5rIiBpZD0iTF9SRVNfQVBJX1JFU1BPTlNFXzAiIGQ9Ik0xMTUzLjQxNSwxMDI3LjE2MkwxMTYwLjY4LDEwMzEuMzI5QzExNjcuOTQ1LDEwMzUuNDk2LDExODIuNDc0LDEwNDMuODI5LDExNjQuODg2LDEwNTUuNTc1QzExNDcuMjk4LDEwNjcuMzIsMTA5Ny41OTMsMTA4Mi40NzgsMTA3Mi43NDEsMTA5MC4wNTZMMTA0Ny44ODksMTA5Ny42MzUiPjwvcGF0aD48cGF0aCBtYXJrZXItZW5kPSJ1cmwoI2dlTWVybWFpZE91dHB1dC0xNzQ5NDI4OTI4MzM5X2Zsb3djaGFydC12Mi1wb2ludEVuZCkiIHN0eWxlPSIiIGNsYXNzPSJlZGdlLXRoaWNrbmVzcy1ub3JtYWwgZWRnZS1wYXR0ZXJuLXNvbGlkIGVkZ2UtdGhpY2tuZXNzLW5vcm1hbCBlZGdlLXBhdHRlcm4tc29saWQgZmxvd2NoYXJ0LWxpbmsiIGlkPSJMX0hPT0tfQVBJX1JFU1BPTlNFXzAiIGQ9Ik0xMzM0LjY4MSwxMDI3LjE2MkwxMzM1LjMzMiwxMDMxLjMyOUMxMzM1Ljk4MywxMDM1LjQ5NiwxMzM3LjI4NSwxMDQzLjgyOSwxMjg5LjUwNCwxMDU3LjIzQzEyNDEuNzIyLDEwNzAuNjMsMTE0NC44NTcsMTA4OS4wOTgsMTA5Ni40MjQsMTA5OC4zMzFMMTA0Ny45OTIsMTEwNy41NjUiPjwvcGF0aD48L2c+PGcgY2xhc3M9ImVkZ2VMYWJlbHMiPjxnPjxyZWN0IHN0eWxlPSJzdHJva2U6IG5vbmUiIGNsYXNzPSJiYWNrZ3JvdW5kIj48L3JlY3Q+PC9nPjxnPjxyZWN0IHN0eWxlPSJzdHJva2U6IG5vbmUiIGNsYXNzPSJiYWNrZ3JvdW5kIj48L3JlY3Q+PC9nPjxnPjxyZWN0IHN0eWxlPSJzdHJva2U6IG5vbmUiIGNsYXNzPSJiYWNrZ3JvdW5kIj48L3JlY3Q+PC9nPjxnPjxyZWN0IHN0eWxlPSJzdHJva2U6IG5vbmUiIGNsYXNzPSJiYWNrZ3JvdW5kIj48L3JlY3Q+PC9nPjxnPjxyZWN0IHN0eWxlPSJzdHJva2U6IG5vbmUiIGNsYXNzPSJiYWNrZ3JvdW5kIj48L3JlY3Q+PC9nPjxnPjxyZWN0IHN0eWxlPSJzdHJva2U6IG5vbmUiIGNsYXNzPSJiYWNrZ3JvdW5kIj48L3JlY3Q+PC9nPjxnPjxyZWN0IHN0eWxlPSJzdHJva2U6IG5vbmUiIGNsYXNzPSJiYWNrZ3JvdW5kIj48L3JlY3Q+PC9nPjxnPjxyZWN0IHN0eWxlPSJzdHJva2U6IG5vbmUiIGNsYXNzPSJiYWNrZ3JvdW5kIj48L3JlY3Q+PC9nPjxnPjxyZWN0IHN0eWxlPSJzdHJva2U6IG5vbmUiIGNsYXNzPSJiYWNrZ3JvdW5kIj48L3JlY3Q+PC9nPjxnPjxyZWN0IHN0eWxlPSJzdHJva2U6IG5vbmUiIGNsYXNzPSJiYWNrZ3JvdW5kIj48L3JlY3Q+PC9nPjxnPjxyZWN0IHN0eWxlPSJzdHJva2U6IG5vbmUiIGNsYXNzPSJiYWNrZ3JvdW5kIj48L3JlY3Q+PC9nPjxnPjxyZWN0IHN0eWxlPSJzdHJva2U6IG5vbmUiIGNsYXNzPSJiYWNrZ3JvdW5kIj48L3JlY3Q+PC9nPjxnPjxyZWN0IHN0eWxlPSJzdHJva2U6IG5vbmUiIGNsYXNzPSJiYWNrZ3JvdW5kIj48L3JlY3Q+PC9nPjxnPjxyZWN0IHN0eWxlPSJzdHJva2U6IG5vbmUiIGNsYXNzPSJiYWNrZ3JvdW5kIj48L3JlY3Q+PC9nPjxnPjxyZWN0IHN0eWxlPSJzdHJva2U6IG5vbmUiIGNsYXNzPSJiYWNrZ3JvdW5kIj48L3JlY3Q+PC9nPjxnPjxyZWN0IHN0eWxlPSJzdHJva2U6IG5vbmUiIGNsYXNzPSJiYWNrZ3JvdW5kIj48L3JlY3Q+PC9nPjxnPjxyZWN0IHN0eWxlPSJzdHJva2U6IG5vbmUiIGNsYXNzPSJiYWNrZ3JvdW5kIj48L3JlY3Q+PC9nPjxnIGNsYXNzPSJlZGdlTGFiZWwiPjxnIHRyYW5zZm9ybT0idHJhbnNsYXRlKDAsIDApIiBjbGFzcz0ibGFiZWwiPjx0ZXh0IHk9Ii0xMC4xIj48dHNwYW4gZHk9IjEuMWVtIiB5PSItMC4xZW0iIHg9IjAiIGNsYXNzPSJ0ZXh0LW91dGVyLXRzcGFuIj48L3RzcGFuPjwvdGV4dD48L2c+PC9nPjxnIHRyYW5zZm9ybT0idHJhbnNsYXRlKDM5OS4xNTMxMjk1Nzc2MzY3LCAyODcuODEyNDk0Mjc3OTU0MSkiIGNsYXNzPSJlZGdlTGFiZWwiPjxnIHRyYW5zZm9ybT0idHJhbnNsYXRlKC0zMi43MjY1NjI1LCAtMTEuNjAwMDAwMzgxNDY5NzI3KSIgY2xhc3M9ImxhYmVsIj48Zz48cmVjdCBoZWlnaHQ9IjIzLjIwMDAwMDc2MjkzOTQ1MyIgd2lkdGg9IjY1LjQ1MzEyNSIgeT0iLTEuMTk5OTk5OTg4MDc5MDcxIiB4PSItMiIgc3R5bGU9IiIgY2xhc3M9ImJhY2tncm91bmQiPjwvcmVjdD48dGV4dCBzdHlsZT0iIiB5PSItMTAuMSI+PHRzcGFuIGR5PSIxLjFlbSIgeT0iLTAuMWVtIiB4PSIwIiBjbGFzcz0idGV4dC1vdXRlci10c3BhbiI+PHRzcGFuIGZvbnQtd2VpZ2h0PSJub3JtYWwiIGNsYXNzPSJ0ZXh0LWlubmVyLXRzcGFuIiBmb250LXN0eWxlPSJub3JtYWwiPkdlw6dlcnNpejwvdHNwYW4+PC90c3Bhbj48L3RleHQ+PC9nPjwvZz48L2c+PGcgdHJhbnNmb3JtPSJ0cmFuc2xhdGUoNjI2LjMwMzEyMzQ3NDEyMTEsIDI4Ny44MTI0OTQyNzc5NTQxKSIgY2xhc3M9ImVkZ2VMYWJlbCI+PGcgdHJhbnNmb3JtPSJ0cmFuc2xhdGUoLTI3Ljg1MDAwMDM4MTQ2OTcyNywgLTExLjYwMDAwMDM4MTQ2OTcyNykiIGNsYXNzPSJsYWJlbCI+PGc+PHJlY3QgaGVpZ2h0PSIyMy4yMDAwMDA3NjI5Mzk0NTMiIHdpZHRoPSI1NS43MDAwMDA3NjI5Mzk0NSIgeT0iLTEuMTk5OTk5OTg4MDc5MDcxIiB4PSItMiIgc3R5bGU9IiIgY2xhc3M9ImJhY2tncm91bmQiPjwvcmVjdD48dGV4dCBzdHlsZT0iIiB5PSItMTAuMSI+PHRzcGFuIGR5PSIxLjFlbSIgeT0iLTAuMWVtIiB4PSIwIiBjbGFzcz0idGV4dC1vdXRlci10c3BhbiI+PHRzcGFuIGZvbnQtd2VpZ2h0PSJub3JtYWwiIGNsYXNzPSJ0ZXh0LWlubmVyLXRzcGFuIiBmb250LXN0eWxlPSJub3JtYWwiPkdlw6dlcmxpPC90c3Bhbj48L3RzcGFuPjwvdGV4dD48L2c+PC9nPjwvZz48ZyB0cmFuc2Zvcm09InRyYW5zbGF0ZSgxMTMuMDUwMDAzMDUxNzU3ODEsIDczMi4xNjI0ODUxMjI2ODA3KSIgY2xhc3M9ImVkZ2VMYWJlbCI+PGcgdHJhbnNmb3JtPSJ0cmFuc2xhdGUoLTI5LjcwNzgxMzI2MjkzOTQ1MywgLTExLjE5OTk5OTgwOTI2NTEzNykiIGNsYXNzPSJsYWJlbCI+PGc+PHJlY3QgaGVpZ2h0PSIyMi4zOTk5OTk2MTg1MzAyNzMiIHdpZHRoPSI1OS40MTU2MjY1MjU4Nzg5MDYiIHk9Ii0xLjE5OTk5OTk4ODA3OTA3MSIgeD0iLTIiIHN0eWxlPSIiIGNsYXNzPSJiYWNrZ3JvdW5kIj48L3JlY3Q+PHRleHQgc3R5bGU9IiIgeT0iLTEwLjEiPjx0c3BhbiBkeT0iMS4xZW0iIHk9Ii0wLjFlbSIgeD0iMCIgY2xhc3M9InRleHQtb3V0ZXItdHNwYW4iPjx0c3BhbiBmb250LXdlaWdodD0ibm9ybWFsIiBjbGFzcz0idGV4dC1pbm5lci10c3BhbiIgZm9udC1zdHlsZT0ibm9ybWFsIj4vYXV0aC8qPC90c3Bhbj48L3RzcGFuPjwvdGV4dD48L2c+PC9nPjwvZz48ZyB0cmFuc2Zvcm09InRyYW5zbGF0ZSgzNTEuODI1MDA0NTc3NjM2NywgNzMyLjE2MjQ4NTEyMjY4MDcpIiBjbGFzcz0iZWRnZUxhYmVsIj48ZyB0cmFuc2Zvcm09InRyYW5zbGF0ZSgtNTguMTI1LCAtMTEuMTk5OTk5ODA5MjY1MTM3KSIgY2xhc3M9ImxhYmVsIj48Zz48cmVjdCBoZWlnaHQ9IjIyLjM5OTk5OTYxODUzMDI3MyIgd2lkdGg9IjExNi4yNSIgeT0iLTEuMTk5OTk5OTg4MDc5MDcxIiB4PSItMiIgc3R5bGU9IiIgY2xhc3M9ImJhY2tncm91bmQiPjwvcmVjdD48dGV4dCBzdHlsZT0iIiB5PSItMTAuMSI+PHRzcGFuIGR5PSIxLjFlbSIgeT0iLTAuMWVtIiB4PSIwIiBjbGFzcz0idGV4dC1vdXRlci10c3BhbiI+PHRzcGFuIGZvbnQtd2VpZ2h0PSJub3JtYWwiIGNsYXNzPSJ0ZXh0LWlubmVyLXRzcGFuIiBmb250LXN0eWxlPSJub3JtYWwiPi9hcGkvZGFzaGJvYXJkPC90c3Bhbj48L3RzcGFuPjwvdGV4dD48L2c+PC9nPjwvZz48ZyB0cmFuc2Zvcm09InRyYW5zbGF0ZSg2MDcuMzY4NzUxNTI1ODc4OSwgNzMyLjE2MjQ4NTEyMjY4MDcpIiBjbGFzcz0iZWRnZUxhYmVsIj48ZyB0cmFuc2Zvcm09InRyYW5zbGF0ZSgtNjcuNzAzOTEwODI3NjM2NzIsIC0xMS4xOTk5OTk4MDkyNjUxMzcpIiBjbGFzcz0ibGFiZWwiPjxnPjxyZWN0IGhlaWdodD0iMjIuMzk5OTk5NjE4NTMwMjczIiB3aWR0aD0iMTM1LjQwNzgyMTY1NTI3MzQ0IiB5PSItMS4xOTk5OTk5ODgwNzkwNzEiIHg9Ii0yIiBzdHlsZT0iIiBjbGFzcz0iYmFja2dyb3VuZCI+PC9yZWN0Pjx0ZXh0IHN0eWxlPSIiIHk9Ii0xMC4xIj48dHNwYW4gZHk9IjEuMWVtIiB5PSItMC4xZW0iIHg9IjAiIGNsYXNzPSJ0ZXh0LW91dGVyLXRzcGFuIj48dHNwYW4gZm9udC13ZWlnaHQ9Im5vcm1hbCIgY2xhc3M9InRleHQtaW5uZXItdHNwYW4iIGZvbnQtc3R5bGU9Im5vcm1hbCI+L2FwaS9tYW5hZ2VtZW50PC90c3Bhbj48L3RzcGFuPjwvdGV4dD48L2c+PC9nPjwvZz48ZyB0cmFuc2Zvcm09InRyYW5zbGF0ZSg4NTcuMjYyNDk2OTQ4MjQyMiwgNTI4Ljk2MjQ4NTMxMzQxNTUpIiBjbGFzcz0iZWRnZUxhYmVsIj48ZyB0cmFuc2Zvcm09InRyYW5zbGF0ZSgtMzcuNTE3MTg5MDI1ODc4OTA2LCAtMTEuMTk5OTk5ODA5MjY1MTM3KSIgY2xhc3M9ImxhYmVsIj48Zz48cmVjdCBoZWlnaHQ9IjIyLjM5OTk5OTYxODUzMDI3MyIgd2lkdGg9Ijc1LjAzNDM3ODA1MTc1NzgxIiB5PSItMS4xOTk5OTk5ODgwNzkwNzEiIHg9Ii0yIiBzdHlsZT0iIiBjbGFzcz0iYmFja2dyb3VuZCI+PC9yZWN0Pjx0ZXh0IHN0eWxlPSIiIHk9Ii0xMC4xIj48dHNwYW4gZHk9IjEuMWVtIiB5PSItMC4xZW0iIHg9IjAiIGNsYXNzPSJ0ZXh0LW91dGVyLXRzcGFuIj48dHNwYW4gZm9udC13ZWlnaHQ9Im5vcm1hbCIgY2xhc3M9InRleHQtaW5uZXItdHNwYW4iIGZvbnQtc3R5bGU9Im5vcm1hbCI+L29wdGltaXplPC90c3Bhbj48L3RzcGFuPjwvdGV4dD48L2c+PC9nPjwvZz48ZyB0cmFuc2Zvcm09InRyYW5zbGF0ZSgxMDg1LjQxODc0Njk0ODI0MjIsIDczMi4xNjI0ODUxMjI2ODA3KSIgY2xhc3M9ImVkZ2VMYWJlbCI+PGcgdHJhbnNmb3JtPSJ0cmFuc2xhdGUoLTQ1LjE4NzUsIC0xMS4xOTk5OTk4MDkyNjUxMzcpIiBjbGFzcz0ibGFiZWwiPjxnPjxyZWN0IGhlaWdodD0iMjIuMzk5OTk5NjE4NTMwMjczIiB3aWR0aD0iOTAuMzc1IiB5PSItMS4xOTk5OTk5ODgwNzkwNzEiIHg9Ii0yIiBzdHlsZT0iIiBjbGFzcz0iYmFja2dyb3VuZCI+PC9yZWN0Pjx0ZXh0IHN0eWxlPSIiIHk9Ii0xMC4xIj48dHNwYW4gZHk9IjEuMWVtIiB5PSItMC4xZW0iIHg9IjAiIGNsYXNzPSJ0ZXh0LW91dGVyLXRzcGFuIj48dHNwYW4gZm9udC13ZWlnaHQ9Im5vcm1hbCIgY2xhc3M9InRleHQtaW5uZXItdHNwYW4iIGZvbnQtc3R5bGU9Im5vcm1hbCI+L2FwaS9yZXN1bHRzPC90c3Bhbj48L3RzcGFuPjwvdGV4dD48L2c+PC9nPjwvZz48ZyB0cmFuc2Zvcm09InRyYW5zbGF0ZSgxMzI4LjU4NzUwMTUyNTg3OSwgNzMyLjE2MjQ4NTEyMjY4MDcpIiBjbGFzcz0iZWRnZUxhYmVsIj48ZyB0cmFuc2Zvcm09InRyYW5zbGF0ZSgtMzguMzI1NzgyNzc1ODc4OTA2LCAtMTEuMTk5OTk5ODA5MjY1MTM3KSIgY2xhc3M9ImxhYmVsIj48Zz48cmVjdCBoZWlnaHQ9IjIyLjM5OTk5OTYxODUzMDI3MyIgd2lkdGg9Ijc2LjY1MTU2NTU1MTc1NzgxIiB5PSItMS4xOTk5OTk5ODgwNzkwNzEiIHg9Ii0yIiBzdHlsZT0iIiBjbGFzcz0iYmFja2dyb3VuZCI+PC9yZWN0Pjx0ZXh0IHN0eWxlPSIiIHk9Ii0xMC4xIj48dHNwYW4gZHk9IjEuMWVtIiB5PSItMC4xZW0iIHg9IjAiIGNsYXNzPSJ0ZXh0LW91dGVyLXRzcGFuIj48dHNwYW4gZm9udC13ZWlnaHQ9Im5vcm1hbCIgY2xhc3M9InRleHQtaW5uZXItdHNwYW4iIGZvbnQtc3R5bGU9Im5vcm1hbCI+L3dlYmhvb2s8L3RzcGFuPjwvdHNwYW4+PC90ZXh0PjwvZz48L2c+PC9nPjxnIGNsYXNzPSJlZGdlTGFiZWwiPjxnIHRyYW5zZm9ybT0idHJhbnNsYXRlKDAsIDApIiBjbGFzcz0ibGFiZWwiPjx0ZXh0IHk9Ii0xMC4xIj48dHNwYW4gZHk9IjEuMWVtIiB5PSItMC4xZW0iIHg9IjAiIGNsYXNzPSJ0ZXh0LW91dGVyLXRzcGFuIj48L3RzcGFuPjwvdGV4dD48L2c+PC9nPjxnIGNsYXNzPSJlZGdlTGFiZWwiPjxnIHRyYW5zZm9ybT0idHJhbnNsYXRlKDAsIDApIiBjbGFzcz0ibGFiZWwiPjx0ZXh0IHk9Ii0xMC4xIj48dHNwYW4gZHk9IjEuMWVtIiB5PSItMC4xZW0iIHg9IjAiIGNsYXNzPSJ0ZXh0LW91dGVyLXRzcGFuIj48L3RzcGFuPjwvdGV4dD48L2c+PC9nPjxnIGNsYXNzPSJlZGdlTGFiZWwiPjxnIHRyYW5zZm9ybT0idHJhbnNsYXRlKDAsIDApIiBjbGFzcz0ibGFiZWwiPjx0ZXh0IHk9Ii0xMC4xIj48dHNwYW4gZHk9IjEuMWVtIiB5PSItMC4xZW0iIHg9IjAiIGNsYXNzPSJ0ZXh0LW91dGVyLXRzcGFuIj48L3RzcGFuPjwvdGV4dD48L2c+PC9nPjxnIGNsYXNzPSJlZGdlTGFiZWwiPjxnIHRyYW5zZm9ybT0idHJhbnNsYXRlKDAsIDApIiBjbGFzcz0ibGFiZWwiPjx0ZXh0IHk9Ii0xMC4xIj48dHNwYW4gZHk9IjEuMWVtIiB5PSItMC4xZW0iIHg9IjAiIGNsYXNzPSJ0ZXh0LW91dGVyLXRzcGFuIj48L3RzcGFuPjwvdGV4dD48L2c+PC9nPjxnIGNsYXNzPSJlZGdlTGFiZWwiPjxnIHRyYW5zZm9ybT0idHJhbnNsYXRlKDAsIDApIiBjbGFzcz0ibGFiZWwiPjx0ZXh0IHk9Ii0xMC4xIj48dHNwYW4gZHk9IjEuMWVtIiB5PSItMC4xZW0iIHg9IjAiIGNsYXNzPSJ0ZXh0LW91dGVyLXRzcGFuIj48L3RzcGFuPjwvdGV4dD48L2c+PC9nPjxnIGNsYXNzPSJlZGdlTGFiZWwiPjxnIHRyYW5zZm9ybT0idHJhbnNsYXRlKDAsIDApIiBjbGFzcz0ibGFiZWwiPjx0ZXh0IHk9Ii0xMC4xIj48dHNwYW4gZHk9IjEuMWVtIiB5PSItMC4xZW0iIHg9IjAiIGNsYXNzPSJ0ZXh0LW91dGVyLXRzcGFuIj48L3RzcGFuPjwvdGV4dD48L2c+PC9nPjxnIGNsYXNzPSJlZGdlTGFiZWwiPjxnIHRyYW5zZm9ybT0idHJhbnNsYXRlKDAsIDApIiBjbGFzcz0ibGFiZWwiPjx0ZXh0IHk9Ii0xMC4xIj48dHNwYW4gZHk9IjEuMWVtIiB5PSItMC4xZW0iIHg9IjAiIGNsYXNzPSJ0ZXh0LW91dGVyLXRzcGFuIj48L3RzcGFuPjwvdGV4dD48L2c+PC9nPjxnIGNsYXNzPSJlZGdlTGFiZWwiPjxnIHRyYW5zZm9ybT0idHJhbnNsYXRlKDAsIDApIiBjbGFzcz0ibGFiZWwiPjx0ZXh0IHk9Ii0xMC4xIj48dHNwYW4gZHk9IjEuMWVtIiB5PSItMC4xZW0iIHg9IjAiIGNsYXNzPSJ0ZXh0LW91dGVyLXRzcGFuIj48L3RzcGFuPjwvdGV4dD48L2c+PC9nPjxnIGNsYXNzPSJlZGdlTGFiZWwiPjxnIHRyYW5zZm9ybT0idHJhbnNsYXRlKDAsIDApIiBjbGFzcz0ibGFiZWwiPjx0ZXh0IHk9Ii0xMC4xIj48dHNwYW4gZHk9IjEuMWVtIiB5PSItMC4xZW0iIHg9IjAiIGNsYXNzPSJ0ZXh0LW91dGVyLXRzcGFuIj48L3RzcGFuPjwvdGV4dD48L2c+PC9nPjxnIGNsYXNzPSJlZGdlTGFiZWwiPjxnIHRyYW5zZm9ybT0idHJhbnNsYXRlKDAsIDApIiBjbGFzcz0ibGFiZWwiPjx0ZXh0IHk9Ii0xMC4xIj48dHNwYW4gZHk9IjEuMWVtIiB5PSItMC4xZW0iIHg9IjAiIGNsYXNzPSJ0ZXh0LW91dGVyLXRzcGFuIj48L3RzcGFuPjwvdGV4dD48L2c+PC9nPjxnIGNsYXNzPSJlZGdlTGFiZWwiPjxnIHRyYW5zZm9ybT0idHJhbnNsYXRlKDAsIDApIiBjbGFzcz0ibGFiZWwiPjx0ZXh0IHk9Ii0xMC4xIj48dHNwYW4gZHk9IjEuMWVtIiB5PSItMC4xZW0iIHg9IjAiIGNsYXNzPSJ0ZXh0LW91dGVyLXRzcGFuIj48L3RzcGFuPjwvdGV4dD48L2c+PC9nPjxnIGNsYXNzPSJlZGdlTGFiZWwiPjxnIHRyYW5zZm9ybT0idHJhbnNsYXRlKDAsIDApIiBjbGFzcz0ibGFiZWwiPjx0ZXh0IHk9Ii0xMC4xIj48dHNwYW4gZHk9IjEuMWVtIiB5PSItMC4xZW0iIHg9IjAiIGNsYXNzPSJ0ZXh0LW91dGVyLXRzcGFuIj48L3RzcGFuPjwvdGV4dD48L2c+PC9nPjxnIGNsYXNzPSJlZGdlTGFiZWwiPjxnIHRyYW5zZm9ybT0idHJhbnNsYXRlKDAsIDApIiBjbGFzcz0ibGFiZWwiPjx0ZXh0IHk9Ii0xMC4xIj48dHNwYW4gZHk9IjEuMWVtIiB5PSItMC4xZW0iIHg9IjAiIGNsYXNzPSJ0ZXh0LW91dGVyLXRzcGFuIj48L3RzcGFuPjwvdGV4dD48L2c+PC9nPjxnIGNsYXNzPSJlZGdlTGFiZWwiPjxnIHRyYW5zZm9ybT0idHJhbnNsYXRlKDAsIDApIiBjbGFzcz0ibGFiZWwiPjx0ZXh0IHk9Ii0xMC4xIj48dHNwYW4gZHk9IjEuMWVtIiB5PSItMC4xZW0iIHg9IjAiIGNsYXNzPSJ0ZXh0LW91dGVyLXRzcGFuIj48L3RzcGFuPjwvdGV4dD48L2c+PC9nPjxnIGNsYXNzPSJlZGdlTGFiZWwiPjxnIHRyYW5zZm9ybT0idHJhbnNsYXRlKDAsIDApIiBjbGFzcz0ibGFiZWwiPjx0ZXh0IHk9Ii0xMC4xIj48dHNwYW4gZHk9IjEuMWVtIiB5PSItMC4xZW0iIHg9IjAiIGNsYXNzPSJ0ZXh0LW91dGVyLXRzcGFuIj48L3RzcGFuPjwvdGV4dD48L2c+PC9nPjxnIGNsYXNzPSJlZGdlTGFiZWwiPjxnIHRyYW5zZm9ybT0idHJhbnNsYXRlKDAsIDApIiBjbGFzcz0ibGFiZWwiPjx0ZXh0IHk9Ii0xMC4xIj48dHNwYW4gZHk9IjEuMWVtIiB5PSItMC4xZW0iIHg9IjAiIGNsYXNzPSJ0ZXh0LW91dGVyLXRzcGFuIj48L3RzcGFuPjwvdGV4dD48L2c+PC9nPjwvZz48ZyBjbGFzcz0ibm9kZXMiPjxnIHRyYW5zZm9ybT0idHJhbnNsYXRlKDUxMi43MjgxMjY1MjU4Nzg5LCAyNy41KSIgaWQ9ImZsb3djaGFydC1TVEFSVC0wIiBjbGFzcz0ibm9kZSBkZWZhdWx0Ij48cmVjdCBoZWlnaHQ9IjM5IiB3aWR0aD0iMTA1Ljg0OTk5ODQ3NDEyMTEiIHk9Ii0xOS41IiB4PSItNTIuOTI0OTk5MjM3MDYwNTUiIHJ5PSIxOS41IiByeD0iMTkuNSIgc3R5bGU9IiIgY2xhc3M9ImJhc2ljIGxhYmVsLWNvbnRhaW5lciI+PC9yZWN0PjxnIHRyYW5zZm9ybT0idHJhbnNsYXRlKC00MC41NDk5OTkyMzcwNjA1NSwgLTEyKSIgc3R5bGU9IiIgY2xhc3M9ImxhYmVsIj48cmVjdD48L3JlY3Q+PGZvcmVpZ25PYmplY3QgaGVpZ2h0PSIyNCIgd2lkdGg9IjgxLjA5OTk5ODQ3NDEyMTEiPjxkaXYgc3R5bGU9ImRpc3BsYXk6IHRhYmxlLWNlbGw7IHdoaXRlLXNwYWNlOiBub3dyYXA7IGxpbmUtaGVpZ2h0OiAxLjU7IG1heC13aWR0aDogMjAwcHg7IHRleHQtYWxpZ246IGNlbnRlcjsiIHhtbG5zPSJodHRwOi8vd3d3LnczLm9yZy8xOTk5L3hodG1sIj48c3BhbiBjbGFzcz0ibm9kZUxhYmVsIj48cD5IVFRQIMSwc3RlxJ9pPC9wPjwvc3Bhbj48L2Rpdj48L2ZvcmVpZ25PYmplY3Q+PC9nPjwvZz48ZyB0cmFuc2Zvcm09InRyYW5zbGF0ZSg1MTIuNzI4MTI2NTI1ODc4OSwgMTc0LjEwNjI0Njk0ODI0MjIpIiBpZD0iZmxvd2NoYXJ0LUFVVEgtMSIgY2xhc3M9Im5vZGUgZGVmYXVsdCI+PHBvbHlnb24gc3R5bGU9ImZpbGw6I2ZmY2RkMiAhaW1wb3J0YW50IiB0cmFuc2Zvcm09InRyYW5zbGF0ZSgtNzcuMTA2MjUwNzYyOTM5NDUsNzcuMTA2MjUwNzYyOTM5NDUpIiBjbGFzcz0ibGFiZWwtY29udGFpbmVyIiBwb2ludHM9Ijc3LjEwNjI1MDc2MjkzOTQ1LDAgMTU0LjIxMjUwMTUyNTg3ODksLTc3LjEwNjI1MDc2MjkzOTQ1IDc3LjEwNjI1MDc2MjkzOTQ1LC0xNTQuMjEyNTAxNTI1ODc4OSAwLC03Ny4xMDYyNTA3NjI5Mzk0NSI+PC9wb2x5Z29uPjxnIHRyYW5zZm9ybT0idHJhbnNsYXRlKC0zOC4xMDYyNTA3NjI5Mzk0NSwgLTI0KSIgc3R5bGU9IiIgY2xhc3M9ImxhYmVsIj48cmVjdD48L3JlY3Q+PGZvcmVpZ25PYmplY3QgaGVpZ2h0PSI0OCIgd2lkdGg9Ijc2LjIxMjUwMTUyNTg3ODkiPjxkaXYgc3R5bGU9ImRpc3BsYXk6IHRhYmxlLWNlbGw7IHdoaXRlLXNwYWNlOiBub3dyYXA7IGxpbmUtaGVpZ2h0OiAxLjU7IG1heC13aWR0aDogMjAwcHg7IHRleHQtYWxpZ246IGNlbnRlcjsiIHhtbG5zPSJodHRwOi8vd3d3LnczLm9yZy8xOTk5L3hodG1sIj48c3BhbiBjbGFzcz0ibm9kZUxhYmVsIj48cD5KV1QgVG9rZW48YnIvPktvbnRyb2zDvDwvcD48L3NwYW4+PC9kaXY+PC9mb3JlaWduT2JqZWN0PjwvZz48L2c+PGcgdHJhbnNmb3JtPSJ0cmFuc2xhdGUoMzk5LjE1MzEyOTU3NzYzNjcsIDQwOC41ODc0OTAwODE3ODcxKSIgaWQ9ImZsb3djaGFydC1VTkFVVEgtMyIgY2xhc3M9Im5vZGUgZGVmYXVsdCI+PHJlY3QgaGVpZ2h0PSI1NCIgd2lkdGg9IjE4NS45NTAwMDQ1Nzc2MzY3MiIgeT0iLTI3IiB4PSItOTIuOTc1MDAyMjg4ODE4MzYiIHN0eWxlPSIiIGNsYXNzPSJiYXNpYyBsYWJlbC1jb250YWluZXIiPjwvcmVjdD48ZyB0cmFuc2Zvcm09InRyYW5zbGF0ZSgtNjIuOTc1MDAyMjg4ODE4MzYsIC0xMikiIHN0eWxlPSIiIGNsYXNzPSJsYWJlbCI+PHJlY3Q+PC9yZWN0Pjxmb3JlaWduT2JqZWN0IGhlaWdodD0iMjQiIHdpZHRoPSIxMjUuOTUwMDA0NTc3NjM2NzIiPjxkaXYgc3R5bGU9ImRpc3BsYXk6IHRhYmxlLWNlbGw7IHdoaXRlLXNwYWNlOiBub3dyYXA7IGxpbmUtaGVpZ2h0OiAxLjU7IG1heC13aWR0aDogMjAwcHg7IHRleHQtYWxpZ246IGNlbnRlcjsiIHhtbG5zPSJodHRwOi8vd3d3LnczLm9yZy8xOTk5L3hodG1sIj48c3BhbiBjbGFzcz0ibm9kZUxhYmVsIj48cD40MDEgVW5hdXRob3JpemVkPC9wPjwvc3Bhbj48L2Rpdj48L2ZvcmVpZ25PYmplY3Q+PC9nPjwvZz48ZyB0cmFuc2Zvcm09InRyYW5zbGF0ZSg2MjYuMzAzMTIzNDc0MTIxMSwgNDA4LjU4NzQ5MDA4MTc4NzEpIiBpZD0iZmxvd2NoYXJ0LVJPVVRFLTUiIGNsYXNzPSJub2RlIGRlZmF1bHQiPjxwb2x5Z29uIHN0eWxlPSJmaWxsOiNlMWY1ZmUgIWltcG9ydGFudCIgdHJhbnNmb3JtPSJ0cmFuc2xhdGUoLTg0LjE3NDk5OTIzNzA2MDU1LDg0LjE3NDk5OTIzNzA2MDU1KSIgY2xhc3M9ImxhYmVsLWNvbnRhaW5lciIgcG9pbnRzPSI4NC4xNzQ5OTkyMzcwNjA1NSwwIDE2OC4zNDk5OTg0NzQxMjExLC04NC4xNzQ5OTkyMzcwNjA1NSA4NC4xNzQ5OTkyMzcwNjA1NSwtMTY4LjM0OTk5ODQ3NDEyMTEgMCwtODQuMTc0OTk5MjM3MDYwNTUiPjwvcG9seWdvbj48ZyB0cmFuc2Zvcm09InRyYW5zbGF0ZSgtNDUuMTc0OTk5MjM3MDYwNTUsIC0yNCkiIHN0eWxlPSIiIGNsYXNzPSJsYWJlbCI+PHJlY3Q+PC9yZWN0Pjxmb3JlaWduT2JqZWN0IGhlaWdodD0iNDgiIHdpZHRoPSI5MC4zNDk5OTg0NzQxMjExIj48ZGl2IHN0eWxlPSJkaXNwbGF5OiB0YWJsZS1jZWxsOyB3aGl0ZS1zcGFjZTogbm93cmFwOyBsaW5lLWhlaWdodDogMS41OyBtYXgtd2lkdGg6IDIwMHB4OyB0ZXh0LWFsaWduOiBjZW50ZXI7IiB4bWxucz0iaHR0cDovL3d3dy53My5vcmcvMTk5OS94aHRtbCI+PHNwYW4gY2xhc3M9Im5vZGVMYWJlbCI+PHA+RW5kcG9pbnQ8YnIvPlnDtm5sZW5kaXJtZTwvcD48L3NwYW4+PC9kaXY+PC9mb3JlaWduT2JqZWN0PjwvZz48L2c+PGcgdHJhbnNmb3JtPSJ0cmFuc2xhdGUoMTEzLjA1MDAwMzA1MTc1NzgxLCA5ODguMTYyNDg1MTIyNjgwNykiIGlkPSJmbG93Y2hhcnQtQVVUSF9BUEktNyIgY2xhc3M9Im5vZGUgZGVmYXVsdCI+PHJlY3QgaGVpZ2h0PSI3OCIgd2lkdGg9IjIxMC4xMDAwMDYxMDM1MTU2MiIgeT0iLTM5IiB4PSItMTA1LjA1MDAwMzA1MTc1NzgxIiBzdHlsZT0iIiBjbGFzcz0iYmFzaWMgbGFiZWwtY29udGFpbmVyIj48L3JlY3Q+PGcgdHJhbnNmb3JtPSJ0cmFuc2xhdGUoLTc1LjA1MDAwMzA1MTc1NzgxLCAtMjQpIiBzdHlsZT0iIiBjbGFzcz0ibGFiZWwiPjxyZWN0PjwvcmVjdD48Zm9yZWlnbk9iamVjdCBoZWlnaHQ9IjQ4IiB3aWR0aD0iMTUwLjEwMDAwNjEwMzUxNTYyIj48ZGl2IHN0eWxlPSJkaXNwbGF5OiB0YWJsZS1jZWxsOyB3aGl0ZS1zcGFjZTogbm93cmFwOyBsaW5lLWhlaWdodDogMS41OyBtYXgtd2lkdGg6IDIwMHB4OyB0ZXh0LWFsaWduOiBjZW50ZXI7IiB4bWxucz0iaHR0cDovL3d3dy53My5vcmcvMTk5OS94aHRtbCI+PHNwYW4gY2xhc3M9Im5vZGVMYWJlbCI+PHA+QXV0aGVudGljYXRpb24gQVBJPGJyLz5Mb2dpbi9Mb2dvdXQvUHJvZmlsZTwvcD48L3NwYW4+PC9kaXY+PC9mb3JlaWduT2JqZWN0PjwvZz48L2c+PGcgdHJhbnNmb3JtPSJ0cmFuc2xhdGUoMzUxLjgyNTAwNDU3NzYzNjcsIDk4OC4xNjI0ODUxMjI2ODA3KSIgaWQ9ImZsb3djaGFydC1EQVNIX0FQSS05IiBjbGFzcz0ibm9kZSBkZWZhdWx0Ij48cmVjdCBoZWlnaHQ9Ijc4IiB3aWR0aD0iMTY3LjQ1MDAwNDU3NzYzNjcyIiB5PSItMzkiIHg9Ii04My43MjUwMDIyODg4MTgzNiIgc3R5bGU9IiIgY2xhc3M9ImJhc2ljIGxhYmVsLWNvbnRhaW5lciI+PC9yZWN0PjxnIHRyYW5zZm9ybT0idHJhbnNsYXRlKC01My43MjUwMDIyODg4MTgzNiwgLTI0KSIgc3R5bGU9IiIgY2xhc3M9ImxhYmVsIj48cmVjdD48L3JlY3Q+PGZvcmVpZ25PYmplY3QgaGVpZ2h0PSI0OCIgd2lkdGg9IjEwNy40NTAwMDQ1Nzc2MzY3MiI+PGRpdiBzdHlsZT0iZGlzcGxheTogdGFibGUtY2VsbDsgd2hpdGUtc3BhY2U6IG5vd3JhcDsgbGluZS1oZWlnaHQ6IDEuNTsgbWF4LXdpZHRoOiAyMDBweDsgdGV4dC1hbGlnbjogY2VudGVyOyIgeG1sbnM9Imh0dHA6Ly93d3cudzMub3JnLzE5OTkveGh0bWwiPjxzcGFuIGNsYXNzPSJub2RlTGFiZWwiPjxwPkRhc2hib2FyZCBBUEk8YnIvPlNpc3RlbSBEdXJ1bXU8L3A+PC9zcGFuPjwvZGl2PjwvZm9yZWlnbk9iamVjdD48L2c+PC9nPjxnIHRyYW5zZm9ybT0idHJhbnNsYXRlKDYwNy4zNjg3NTE1MjU4Nzg5LCA5ODguMTYyNDg1MTIyNjgwNykiIGlkPSJmbG93Y2hhcnQtTUdNVF9BUEktMTEiIGNsYXNzPSJub2RlIGRlZmF1bHQiPjxyZWN0IGhlaWdodD0iNzgiIHdpZHRoPSIyNDMuNjM3NDk2OTQ4MjQyMiIgeT0iLTM5IiB4PSItMTIxLjgxODc0ODQ3NDEyMTEiIHN0eWxlPSIiIGNsYXNzPSJiYXNpYyBsYWJlbC1jb250YWluZXIiPjwvcmVjdD48ZyB0cmFuc2Zvcm09InRyYW5zbGF0ZSgtOTEuODE4NzQ4NDc0MTIxMSwgLTI0KSIgc3R5bGU9IiIgY2xhc3M9ImxhYmVsIj48cmVjdD48L3JlY3Q+PGZvcmVpZ25PYmplY3QgaGVpZ2h0PSI0OCIgd2lkdGg9IjE4My42Mzc0OTY5NDgyNDIyIj48ZGl2IHN0eWxlPSJkaXNwbGF5OiB0YWJsZS1jZWxsOyB3aGl0ZS1zcGFjZTogbm93cmFwOyBsaW5lLWhlaWdodDogMS41OyBtYXgtd2lkdGg6IDIwMHB4OyB0ZXh0LWFsaWduOiBjZW50ZXI7IiB4bWxucz0iaHR0cDovL3d3dy53My5vcmcvMTk5OS94aHRtbCI+PHNwYW4gY2xhc3M9Im5vZGVMYWJlbCI+PHA+TWFuYWdlbWVudCBBUEk8YnIvPkt1bGxhbsSxY8SxL0t1cnVtIFnDtm5ldGltaTwvcD48L3NwYW4+PC9kaXY+PC9mb3JlaWduT2JqZWN0PjwvZz48L2c+PGcgdHJhbnNmb3JtPSJ0cmFuc2xhdGUoODU3LjI2MjQ5Njk0ODI0MjIsIDYwNC4xNjI0ODUxMjI2ODA3KSIgaWQ9ImZsb3djaGFydC1PUFRfQVBJLTEzIiBjbGFzcz0ibm9kZSBkZWZhdWx0Ij48cmVjdCBoZWlnaHQ9Ijc4IiB3aWR0aD0iMTc5LjQzNzUiIHk9Ii0zOSIgeD0iLTg5LjcxODc1IiBzdHlsZT0iIiBjbGFzcz0iYmFzaWMgbGFiZWwtY29udGFpbmVyIj48L3JlY3Q+PGcgdHJhbnNmb3JtPSJ0cmFuc2xhdGUoLTU5LjcxODc1LCAtMjQpIiBzdHlsZT0iIiBjbGFzcz0ibGFiZWwiPjxyZWN0PjwvcmVjdD48Zm9yZWlnbk9iamVjdCBoZWlnaHQ9IjQ4IiB3aWR0aD0iMTE5LjQzNzUiPjxkaXYgc3R5bGU9ImRpc3BsYXk6IHRhYmxlLWNlbGw7IHdoaXRlLXNwYWNlOiBub3dyYXA7IGxpbmUtaGVpZ2h0OiAxLjU7IG1heC13aWR0aDogMjAwcHg7IHRleHQtYWxpZ246IGNlbnRlcjsiIHhtbG5zPSJodHRwOi8vd3d3LnczLm9yZy8xOTk5L3hodG1sIj48c3BhbiBjbGFzcz0ibm9kZUxhYmVsIj48cD5PcHRpbWl6YXRpb24gQVBJPGJyLz5DUC1TQVQgw4fDtnrDvGPDvDwvcD48L3NwYW4+PC9kaXY+PC9mb3JlaWduT2JqZWN0PjwvZz48L2c+PGcgdHJhbnNmb3JtPSJ0cmFuc2xhdGUoMTA4NS40MTg3NDY5NDgyNDIyLCA5ODguMTYyNDg1MTIyNjgwNykiIGlkPSJmbG93Y2hhcnQtUkVTX0FQSS0xNSIgY2xhc3M9Im5vZGUgZGVmYXVsdCI+PHJlY3QgaGVpZ2h0PSI3OCIgd2lkdGg9IjIwMC4xNjI1MDYxMDM1MTU2MiIgeT0iLTM5IiB4PSItMTAwLjA4MTI1MzA1MTc1NzgxIiBzdHlsZT0iIiBjbGFzcz0iYmFzaWMgbGFiZWwtY29udGFpbmVyIj48L3JlY3Q+PGcgdHJhbnNmb3JtPSJ0cmFuc2xhdGUoLTcwLjA4MTI1MzA1MTc1NzgxLCAtMjQpIiBzdHlsZT0iIiBjbGFzcz0ibGFiZWwiPjxyZWN0PjwvcmVjdD48Zm9yZWlnbk9iamVjdCBoZWlnaHQ9IjQ4IiB3aWR0aD0iMTQwLjE2MjUwNjEwMzUxNTYyIj48ZGl2IHN0eWxlPSJkaXNwbGF5OiB0YWJsZS1jZWxsOyB3aGl0ZS1zcGFjZTogbm93cmFwOyBsaW5lLWhlaWdodDogMS41OyBtYXgtd2lkdGg6IDIwMHB4OyB0ZXh0LWFsaWduOiBjZW50ZXI7IiB4bWxucz0iaHR0cDovL3d3dy53My5vcmcvMTk5OS94aHRtbCI+PHNwYW4gY2xhc3M9Im5vZGVMYWJlbCI+PHA+UmVzdWx0cyBBUEk8YnIvPlNvbnXDpyBHw7Zyw7xudMO8bGVtZTwvcD48L3NwYW4+PC9kaXY+PC9mb3JlaWduT2JqZWN0PjwvZz48L2c+PGcgdHJhbnNmb3JtPSJ0cmFuc2xhdGUoMTMyOC41ODc1MDE1MjU4NzksIDk4OC4xNjI0ODUxMjI2ODA3KSIgaWQ9ImZsb3djaGFydC1IT09LX0FQSS0xNyIgY2xhc3M9Im5vZGUgZGVmYXVsdCI+PHJlY3QgaGVpZ2h0PSI3OCIgd2lkdGg9IjE4Ni4xNzUwMDMwNTE3NTc4IiB5PSItMzkiIHg9Ii05My4wODc1MDE1MjU4Nzg5IiBzdHlsZT0iIiBjbGFzcz0iYmFzaWMgbGFiZWwtY29udGFpbmVyIj48L3JlY3Q+PGcgdHJhbnNmb3JtPSJ0cmFuc2xhdGUoLTYzLjA4NzUwMTUyNTg3ODkwNiwgLTI0KSIgc3R5bGU9IiIgY2xhc3M9ImxhYmVsIj48cmVjdD48L3JlY3Q+PGZvcmVpZ25PYmplY3QgaGVpZ2h0PSI0OCIgd2lkdGg9IjEyNi4xNzUwMDMwNTE3NTc4MSI+PGRpdiBzdHlsZT0iZGlzcGxheTogdGFibGUtY2VsbDsgd2hpdGUtc3BhY2U6IG5vd3JhcDsgbGluZS1oZWlnaHQ6IDEuNTsgbWF4LXdpZHRoOiAyMDBweDsgdGV4dC1hbGlnbjogY2VudGVyOyIgeG1sbnM9Imh0dHA6Ly93d3cudzMub3JnLzE5OTkveGh0bWwiPjxzcGFuIGNsYXNzPSJub2RlTGFiZWwiPjxwPldlYmhvb2sgQVBJPGJyLz5uOG4gRW50ZWdyYXN5b251PC9wPjwvc3Bhbj48L2Rpdj48L2ZvcmVpZ25PYmplY3Q+PC9nPjwvZz48ZyB0cmFuc2Zvcm09InRyYW5zbGF0ZSg0NzUuNDAwMDAxNTI1ODc4OSwgMTEyNC4xODEyNDk2MTg1MzAzKSIgaWQ9ImZsb3djaGFydC1EQi0xOSIgY2xhc3M9Im5vZGUgZGVmYXVsdCI+PHBhdGggdHJhbnNmb3JtPSJ0cmFuc2xhdGUoLTQ0LjEyNSwgLTQ3LjAxODc1NzMyNzA4MDg5KSIgc3R5bGU9ImZpbGw6I2ZmZjNlMCAhaW1wb3J0YW50IiBjbGFzcz0iYmFzaWMgbGFiZWwtY29udGFpbmVyIiBkPSJNMCwxMC4zNDU4MzgyMTgwNTM5MjcgYTQ0LjEyNSwxMC4zNDU4MzgyMTgwNTM5MjcgMCwwLDAgODguMjUsMCBhNDQuMTI1LDEwLjM0NTgzODIxODA1MzkyNyAwLDAsMCAtODguMjUsMCBsMCw3My4zNDU4MzgyMTgwNTM5MyBhNDQuMTI1LDEwLjM0NTgzODIxODA1MzkyNyAwLDAsMCA4OC4yNSwwIGwwLC03My4zNDU4MzgyMTgwNTM5MyI+PC9wYXRoPjxnIHRyYW5zZm9ybT0idHJhbnNsYXRlKC0zNi42MjUsIC0xNCkiIHN0eWxlPSIiIGNsYXNzPSJsYWJlbCI+PHJlY3Q+PC9yZWN0Pjxmb3JlaWduT2JqZWN0IGhlaWdodD0iNDgiIHdpZHRoPSI3My4yNSI+PGRpdiBzdHlsZT0iZGlzcGxheTogdGFibGUtY2VsbDsgd2hpdGUtc3BhY2U6IG5vd3JhcDsgbGluZS1oZWlnaHQ6IDEuNTsgbWF4LXdpZHRoOiAyMDBweDsgdGV4dC1hbGlnbjogY2VudGVyOyIgeG1sbnM9Imh0dHA6Ly93d3cudzMub3JnLzE5OTkveGh0bWwiPjxzcGFuIGNsYXNzPSJub2RlTGFiZWwiPjxwPk15U1FMPGJyLz5WZXJpdGFiYW7EsTwvcD48L3NwYW4+PC9kaXY+PC9mb3JlaWduT2JqZWN0PjwvZz48L2c+PGcgdHJhbnNmb3JtPSJ0cmFuc2xhdGUoODU3LjI2MjQ5Njk0ODI0MjIsIDczMi4xNjI0ODUxMjI2ODA3KSIgaWQ9ImZsb3djaGFydC1CVUlMREVSLTI3IiBjbGFzcz0ibm9kZSBkZWZhdWx0Ij48cmVjdCBoZWlnaHQ9Ijc4IiB3aWR0aD0iMTU2LjA2MjUiIHk9Ii0zOSIgeD0iLTc4LjAzMTI1IiBzdHlsZT0iZmlsbDojZThmNWU4ICFpbXBvcnRhbnQiIGNsYXNzPSJiYXNpYyBsYWJlbC1jb250YWluZXIiPjwvcmVjdD48ZyB0cmFuc2Zvcm09InRyYW5zbGF0ZSgtNDguMDMxMjUsIC0yNCkiIHN0eWxlPSIiIGNsYXNzPSJsYWJlbCI+PHJlY3Q+PC9yZWN0Pjxmb3JlaWduT2JqZWN0IGhlaWdodD0iNDgiIHdpZHRoPSI5Ni4wNjI1Ij48ZGl2IHN0eWxlPSJkaXNwbGF5OiB0YWJsZS1jZWxsOyB3aGl0ZS1zcGFjZTogbm93cmFwOyBsaW5lLWhlaWdodDogMS41OyBtYXgtd2lkdGg6IDIwMHB4OyB0ZXh0LWFsaWduOiBjZW50ZXI7IiB4bWxucz0iaHR0cDovL3d3dy53My5vcmcvMTk5OS94aHRtbCI+PHNwYW4gY2xhc3M9Im5vZGVMYWJlbCI+PHA+Q1AtU0FUIE1vZGVsPGJyLz5CdWlsZGVyPC9wPjwvc3Bhbj48L2Rpdj48L2ZvcmVpZ25PYmplY3Q+PC9nPjwvZz48ZyB0cmFuc2Zvcm09InRyYW5zbGF0ZSg4NTcuMjYyNDk2OTQ4MjQyMiwgODYwLjE2MjQ4NTEyMjY4MDcpIiBpZD0iZmxvd2NoYXJ0LVNPTFZFUi0yOSIgY2xhc3M9Im5vZGUgZGVmYXVsdCI+PHJlY3QgaGVpZ2h0PSI3OCIgd2lkdGg9IjE3NS45MjUwMDMwNTE3NTc4IiB5PSItMzkiIHg9Ii04Ny45NjI1MDE1MjU4Nzg5IiBzdHlsZT0iIiBjbGFzcz0iYmFzaWMgbGFiZWwtY29udGFpbmVyIj48L3JlY3Q+PGcgdHJhbnNmb3JtPSJ0cmFuc2xhdGUoLTU3Ljk2MjUwMTUyNTg3ODkwNiwgLTI0KSIgc3R5bGU9IiIgY2xhc3M9ImxhYmVsIj48cmVjdD48L3JlY3Q+PGZvcmVpZ25PYmplY3QgaGVpZ2h0PSI0OCIgd2lkdGg9IjExNS45MjUwMDMwNTE3NTc4MSI+PGRpdiBzdHlsZT0iZGlzcGxheTogdGFibGUtY2VsbDsgd2hpdGUtc3BhY2U6IG5vd3JhcDsgbGluZS1oZWlnaHQ6IDEuNTsgbWF4LXdpZHRoOiAyMDBweDsgdGV4dC1hbGlnbjogY2VudGVyOyIgeG1sbnM9Imh0dHA6Ly93d3cudzMub3JnLzE5OTkveGh0bWwiPjxzcGFuIGNsYXNzPSJub2RlTGFiZWwiPjxwPkdvb2dsZSBPUi1Ub29sczxici8+Q1AtU0FUIFNvbHZlcjwvcD48L3NwYW4+PC9kaXY+PC9mb3JlaWduT2JqZWN0PjwvZz48L2c+PGcgdHJhbnNmb3JtPSJ0cmFuc2xhdGUoODU3LjI2MjQ5Njk0ODI0MjIsIDk4OC4xNjI0ODUxMjI2ODA3KSIgaWQ9ImZsb3djaGFydC1SRVNVTFQtMzEiIGNsYXNzPSJub2RlIGRlZmF1bHQiPjxyZWN0IGhlaWdodD0iNzgiIHdpZHRoPSIxNTYuMTUwMDAxNTI1ODc4OSIgeT0iLTM5IiB4PSItNzguMDc1MDAwNzYyOTM5NDUiIHN0eWxlPSIiIGNsYXNzPSJiYXNpYyBsYWJlbC1jb250YWluZXIiPjwvcmVjdD48ZyB0cmFuc2Zvcm09InRyYW5zbGF0ZSgtNDguMDc1MDAwNzYyOTM5NDUsIC0yNCkiIHN0eWxlPSIiIGNsYXNzPSJsYWJlbCI+PHJlY3Q+PC9yZWN0Pjxmb3JlaWduT2JqZWN0IGhlaWdodD0iNDgiIHdpZHRoPSI5Ni4xNTAwMDE1MjU4Nzg5Ij48ZGl2IHN0eWxlPSJkaXNwbGF5OiB0YWJsZS1jZWxsOyB3aGl0ZS1zcGFjZTogbm93cmFwOyBsaW5lLWhlaWdodDogMS41OyBtYXgtd2lkdGg6IDIwMHB4OyB0ZXh0LWFsaWduOiBjZW50ZXI7IiB4bWxucz0iaHR0cDovL3d3dy53My5vcmcvMTk5OS94aHRtbCI+PHNwYW4gY2xhc3M9Im5vZGVMYWJlbCI+PHA+T3B0aW1pemFzeW9uPGJyLz5Tb251Y3U8L3A+PC9zcGFuPjwvZGl2PjwvZm9yZWlnbk9iamVjdD48L2c+PC9nPjxnIHRyYW5zZm9ybT0idHJhbnNsYXRlKDEzMjguNTg3NTAxNTI1ODc5LCAxMTI0LjE4MTI0OTYxODUzMDMpIiBpZD0iZmxvd2NoYXJ0LU44Ti0zMyIgY2xhc3M9Im5vZGUgZGVmYXVsdCI+PHJlY3QgaGVpZ2h0PSI3OCIgd2lkdGg9IjE1Ny41OTk5OTg0NzQxMjExIiB5PSItMzkiIHg9Ii03OC43OTk5OTkyMzcwNjA1NSIgc3R5bGU9ImZpbGw6I2ZjZTRlYyAhaW1wb3J0YW50IiBjbGFzcz0iYmFzaWMgbGFiZWwtY29udGFpbmVyIj48L3JlY3Q+PGcgdHJhbnNmb3JtPSJ0cmFuc2xhdGUoLTQ4Ljc5OTk5OTIzNzA2MDU1LCAtMjQpIiBzdHlsZT0iIiBjbGFzcz0ibGFiZWwiPjxyZWN0PjwvcmVjdD48Zm9yZWlnbk9iamVjdCBoZWlnaHQ9IjQ4IiB3aWR0aD0iOTcuNTk5OTk4NDc0MTIxMSI+PGRpdiBzdHlsZT0iZGlzcGxheTogdGFibGUtY2VsbDsgd2hpdGUtc3BhY2U6IG5vd3JhcDsgbGluZS1oZWlnaHQ6IDEuNTsgbWF4LXdpZHRoOiAyMDBweDsgdGV4dC1hbGlnbjogY2VudGVyOyIgeG1sbnM9Imh0dHA6Ly93d3cudzMub3JnLzE5OTkveGh0bWwiPjxzcGFuIGNsYXNzPSJub2RlTGFiZWwiPjxwPm44biBXb3JrZmxvdzxici8+VGV0aWtsZW1lPC9wPjwvc3Bhbj48L2Rpdj48L2ZvcmVpZ25PYmplY3Q+PC9nPjwvZz48ZyB0cmFuc2Zvcm09InRyYW5zbGF0ZSgxMjIwLjM4NDM3MjcxMTE4MTYsIDEyNjAuMjAwMDE0MTE0Mzc5OSkiIGlkPSJmbG93Y2hhcnQtQ1NWLTM1IiBjbGFzcz0ibm9kZSBkZWZhdWx0Ij48cmVjdCBoZWlnaHQ9Ijc4IiB3aWR0aD0iMTMyLjY2MjQ5ODQ3NDEyMTEiIHk9Ii0zOSIgeD0iLTY2LjMzMTI0OTIzNzA2MDU1IiBzdHlsZT0iIiBjbGFzcz0iYmFzaWMgbGFiZWwtY29udGFpbmVyIj48L3JlY3Q+PGcgdHJhbnNmb3JtPSJ0cmFuc2xhdGUoLTM2LjMzMTI0OTIzNzA2MDU1LCAtMjQpIiBzdHlsZT0iIiBjbGFzcz0ibGFiZWwiPjxyZWN0PjwvcmVjdD48Zm9yZWlnbk9iamVjdCBoZWlnaHQ9IjQ4IiB3aWR0aD0iNzIuNjYyNDk4NDc0MTIxMSI+PGRpdiBzdHlsZT0iZGlzcGxheTogdGFibGUtY2VsbDsgd2hpdGUtc3BhY2U6IG5vd3JhcDsgbGluZS1oZWlnaHQ6IDEuNTsgbWF4LXdpZHRoOiAyMDBweDsgdGV4dC1hbGlnbjogY2VudGVyOyIgeG1sbnM9Imh0dHA6Ly93d3cudzMub3JnLzE5OTkveGh0bWwiPjxzcGFuIGNsYXNzPSJub2RlTGFiZWwiPjxwPkNTViBEb3N5YTxici8+xLDFn2xlbWU8L3A+PC9zcGFuPjwvZGl2PjwvZm9yZWlnbk9iamVjdD48L2c+PC9nPjxnIHRyYW5zZm9ybT0idHJhbnNsYXRlKDE0MzYuNzkwNjMwMzQwNTc2MiwgMTI2MC4yMDAwMTQxMTQzNzk5KSIgaWQ9ImZsb3djaGFydC1ZQU1MLTM3IiBjbGFzcz0ibm9kZSBkZWZhdWx0Ij48cmVjdCBoZWlnaHQ9Ijc4IiB3aWR0aD0iMjAwLjE1MDAwOTE1NTI3MzQ0IiB5PSItMzkiIHg9Ii0xMDAuMDc1MDA0NTc3NjM2NzIiIHN0eWxlPSIiIGNsYXNzPSJiYXNpYyBsYWJlbC1jb250YWluZXIiPjwvcmVjdD48ZyB0cmFuc2Zvcm09InRyYW5zbGF0ZSgtNzAuMDc1MDA0NTc3NjM2NzIsIC0yNCkiIHN0eWxlPSIiIGNsYXNzPSJsYWJlbCI+PHJlY3Q+PC9yZWN0Pjxmb3JlaWduT2JqZWN0IGhlaWdodD0iNDgiIHdpZHRoPSIxNDAuMTUwMDA5MTU1MjczNDQiPjxkaXYgc3R5bGU9ImRpc3BsYXk6IHRhYmxlLWNlbGw7IHdoaXRlLXNwYWNlOiBub3dyYXA7IGxpbmUtaGVpZ2h0OiAxLjU7IG1heC13aWR0aDogMjAwcHg7IHRleHQtYWxpZ246IGNlbnRlcjsiIHhtbG5zPSJodHRwOi8vd3d3LnczLm9yZy8xOTk5L3hodG1sIj48c3BhbiBjbGFzcz0ibm9kZUxhYmVsIj48cD5ZQU1MIEtvbmZpZ8O8cmFzeW9uPGJyLz5Pa3VtYTwvcD48L3NwYW4+PC9kaXY+PC9mb3JlaWduT2JqZWN0PjwvZz48L2c+PGcgdHJhbnNmb3JtPSJ0cmFuc2xhdGUoOTYwLjgzNzQ5Mzg5NjQ4NDQsIDExMjQuMTgxMjQ5NjE4NTMwMykiIGlkPSJmbG93Y2hhcnQtUkVTUE9OU0UtMzkiIGNsYXNzPSJub2RlIGRlZmF1bHQiPjxyZWN0IGhlaWdodD0iNTQiIHdpZHRoPSIxNjYuNDUwMDA0NTc3NjM2NzIiIHk9Ii0yNyIgeD0iLTgzLjIyNTAwMjI4ODgxODM2IiBzdHlsZT0iIiBjbGFzcz0iYmFzaWMgbGFiZWwtY29udGFpbmVyIj48L3JlY3Q+PGcgdHJhbnNmb3JtPSJ0cmFuc2xhdGUoLTUzLjIyNTAwMjI4ODgxODM2LCAtMTIpIiBzdHlsZT0iIiBjbGFzcz0ibGFiZWwiPjxyZWN0PjwvcmVjdD48Zm9yZWlnbk9iamVjdCBoZWlnaHQ9IjI0IiB3aWR0aD0iMTA2LjQ1MDAwNDU3NzYzNjcyIj48ZGl2IHN0eWxlPSJkaXNwbGF5OiB0YWJsZS1jZWxsOyB3aGl0ZS1zcGFjZTogbm93cmFwOyBsaW5lLWhlaWdodDogMS41OyBtYXgtd2lkdGg6IDIwMHB4OyB0ZXh0LWFsaWduOiBjZW50ZXI7IiB4bWxucz0iaHR0cDovL3d3dy53My5vcmcvMTk5OS94aHRtbCI+PHNwYW4gY2xhc3M9Im5vZGVMYWJlbCI+PHA+SlNPTiBSZXNwb25zZTwvcD48L3NwYW4+PC9kaXY+PC9mb3JlaWduT2JqZWN0PjwvZz48L2c+PC9nPjwvZz48L2c+PC9zdmc+;" vertex="1" parent="1">
            <mxGeometry x="1692" y="-95" width="1544.86572265625" height="1307.2000732421875" as="geometry" />
          </mxCell>
        </UserObject>
        <mxCell id="YTHDeGnD4PDt1OT0c1N5-46" style="edgeStyle=orthogonalEdgeStyle;rounded=0;orthogonalLoop=1;jettySize=auto;html=1;exitX=0.25;exitY=1;exitDx=0;exitDy=0;entryX=0;entryY=0;entryDx=0;entryDy=65.5;entryPerimeter=0;" edge="1" parent="1" source="YTHDeGnD4PDt1OT0c1N5-5" target="YTHDeGnD4PDt1OT0c1N5-11">
          <mxGeometry relative="1" as="geometry" />
        </mxCell>
        <mxCell id="YTHDeGnD4PDt1OT0c1N5-48" style="edgeStyle=orthogonalEdgeStyle;rounded=0;orthogonalLoop=1;jettySize=auto;html=1;exitX=0.25;exitY=1;exitDx=0;exitDy=0;entryX=0;entryY=0;entryDx=0;entryDy=28.5;entryPerimeter=0;fillColor=#fff2cc;strokeColor=#d6b656;strokeWidth=3;" edge="1" parent="1" source="YTHDeGnD4PDt1OT0c1N5-6" target="YTHDeGnD4PDt1OT0c1N5-11">
          <mxGeometry relative="1" as="geometry" />
        </mxCell>
        <mxCell id="YTHDeGnD4PDt1OT0c1N5-52" style="edgeStyle=orthogonalEdgeStyle;rounded=0;orthogonalLoop=1;jettySize=auto;html=1;exitX=0.25;exitY=1;exitDx=0;exitDy=0;entryX=1;entryY=0;entryDx=0;entryDy=65.5;entryPerimeter=0;fillColor=#fff2cc;strokeColor=#d6b656;strokeWidth=3;" edge="1" parent="1" source="YTHDeGnD4PDt1OT0c1N5-7" target="YTHDeGnD4PDt1OT0c1N5-11">
          <mxGeometry relative="1" as="geometry" />
        </mxCell>
        <mxCell id="YTHDeGnD4PDt1OT0c1N5-53" style="edgeStyle=orthogonalEdgeStyle;rounded=0;orthogonalLoop=1;jettySize=auto;html=1;exitX=0.25;exitY=1;exitDx=0;exitDy=0;entryX=0.855;entryY=0;entryDx=0;entryDy=2.9;entryPerimeter=0;fillColor=#fff2cc;strokeColor=#d6b656;strokeWidth=3;" edge="1" parent="1" source="YTHDeGnD4PDt1OT0c1N5-9" target="YTHDeGnD4PDt1OT0c1N5-11">
          <mxGeometry relative="1" as="geometry" />
        </mxCell>
        <mxCell id="YTHDeGnD4PDt1OT0c1N5-63" style="edgeStyle=orthogonalEdgeStyle;rounded=0;orthogonalLoop=1;jettySize=auto;html=1;exitX=0;exitY=0.5;exitDx=0;exitDy=0;entryX=0.75;entryY=0;entryDx=0;entryDy=0;strokeWidth=3;fillColor=#d5e8d4;strokeColor=#82b366;" edge="1" parent="1" target="YTHDeGnD4PDt1OT0c1N5-18">
          <mxGeometry relative="1" as="geometry">
            <mxPoint x="997" y="987" as="sourcePoint" />
            <mxPoint x="936.066" y="1202.8380000000002" as="targetPoint" />
            <Array as="points">
              <mxPoint x="953" y="987" />
              <mxPoint x="953" y="1203" />
              <mxPoint x="911" y="1203" />
            </Array>
          </mxGeometry>
        </mxCell>
        <mxCell id="YTHDeGnD4PDt1OT0c1N5-66" style="edgeStyle=orthogonalEdgeStyle;rounded=0;orthogonalLoop=1;jettySize=auto;html=1;exitX=0.75;exitY=1;exitDx=0;exitDy=0;entryX=0.342;entryY=0.036;entryDx=0;entryDy=0;entryPerimeter=0;strokeWidth=3;" edge="1" parent="1" source="YTHDeGnD4PDt1OT0c1N5-15" target="YTHDeGnD4PDt1OT0c1N5-17">
          <mxGeometry relative="1" as="geometry" />
        </mxCell>
      </root>
    </mxGraphModel>
  </diagram>
</mxfile>
